<?xml version="1.0" standalone="no"?>
  <!DOCTYPE svg PUBLIC "-//W3C//DTD SVG 1.1//EN" "http://www.w3.org/Graphics/SVG/1.1/DTD/svg11.dtd" >
  <svg>
  <metadata>
  Created by font-carrier
  </metadata>
  <defs>
  <font id="NexaScript-Thin" horiz-adv-x="1697" vert-adv-y="1697" >
    <font-face
      
      font-family="Nexa Script Thin"
      
      font-weight="400"
      
      font-stretch="normal"
      
      units-per-em="1000"
      
      ascent="905"
      
      descent="-295"
      
    />
      <missing-glyph />

      

      
      <glyph glyph-name="uni21" unicode="&#x21;" d="M103 168Q125 244 174 444Q223 644 230 671Q238 702 265 696Q285 692 288 675L288 667Q261 571 212 376.50Q163 182 157 159Q153 143 138 141Q123 139 111.50 148Q100 157 103 168M119.50 10Q119.50 10 113.75 4.50Q108-1 93-1Q78-1 68 10.50Q58 22 59 37Q60 52 71.50 63Q83 74 99 74Q115 74 124.50 63Q134 52 133 36Q131 21 119.50 10Z"  horiz-adv-x="332" vert-adv-y="1000"  />

      
      <glyph glyph-name="uni22" unicode="&#x22;" d="M63 540Q61 532 49.50 529Q38 526 28.50 531Q19 536 22 547L51 674Q54 688 67 691.50Q80 695 90.50 687Q101 679 97 666L63 540M174 540Q172 532 160.50 529Q149 526 139.50 531Q130 536 133 547L162 674Q165 688 178 691.50Q191 695 201.50 687Q212 679 208 666L174 540Z"  horiz-adv-x="319" vert-adv-y="1000"  />

      
      <glyph glyph-name="uni23" unicode="&#x23;" d="M144 80Q139 62 115 65Q98 68 98 80Q98 81 98 83L143 250L67 250Q53 250 54 269Q58 289 74 290L153 290L183 400L107 400Q93 400 94 419Q98 439 114 440L193 440L233 588Q237 605 261 602Q280 600 280 588Q280 586 280 585L241 440L334 440L374 588Q378 605 402 602Q421 600 421 588Q421 586 421 585L382 440L458 440Q473 440 472 421Q468 401 451 400L371 400L342 290L419 290Q434 290 433 271Q429 251 412 250L331 250L285 80Q280 62 256 65Q239 68 239 80Q239 81 239 83L284 250L190 250L144 80M201 290L294 290L324 400L230 400L201 290Z"  horiz-adv-x="536" vert-adv-y="1000"  />

      
      <glyph glyph-name="uni24" unicode="&#x24;" d="M394 681L378 623Q430 612 454 578.50Q478 545 476 502Q476 493 464.50 487.50Q453 482 441.50 483.50Q430 485 430 493Q430 558 364 572L304 343Q307 340 322 326Q337 312 341.50 308Q346 304 358.50 291Q371 278 375.50 271.50Q380 265 389.50 252.50Q399 240 402.50 231Q406 222 410.50 209.50Q415 197 416 185Q417 173 416 160Q411 80 359 34.50Q307-11 211-11L193-80Q188-103 167-99Q150-95 149-79L150-71Q153-60 158.50-39Q164-18 167-8Q88 6 53.50 68Q19 130 35 199Q35 211 57 206Q80 201 80 185Q76 136 103 96.50Q130 57 182 46Q194 93 217 183.50Q240 274 251 315Q204 358 180 397Q156 436 161 485Q168 555 212.50 591.50Q257 628 332 628Q334 637 339 654.50Q344 672 346 680Q347 704 374 698Q394 694 394 683Q394 682 394 681M318 576Q279 576 255 557.50Q231 539 225 509Q210 441 267 378L318 576M288 282L225 43Q299 44 333 89Q367 134 353 190.50Q339 247 288 282Z"  horiz-adv-x="520" vert-adv-y="1000"  />

      
      <glyph glyph-name="uni25" unicode="&#x25;" d="M114 19Q106 9 93.50 9.50Q81 10 72 20Q63 30 69 40L406 596Q423 625 448 614Q467 607 463 590L460 584L114 19M210 431Q210 431 192 417.50Q174 404 132 404Q90 404 68 436Q46 468 57 510Q67 551 101 576.50Q135 602 178 602Q218 602 241.50 572.50Q265 543 255 501Q246 458 210 431M109 466Q109 466 114.50 458.50Q120 451 142 451Q164 451 183 466Q202 481 207 503Q212 525 200 540Q188 555 167 555Q145 555 126.50 540.50Q108 526 103 503Q98 481 109 466M353 33Q313 33 290 63.50Q267 94 277 136Q287 177 322.50 204Q358 231 399 231Q441 231 463 201.50Q485 172 475 129Q465 86 430.50 59.50Q396 33 353 33M364 80Q386 80 404.50 94.50Q423 109 428 132Q433 154 422 169Q411 184 389 184Q367 184 348 169Q329 154 324 132Q319 110 331 95Q343 80 364 80Z"  horiz-adv-x="542" vert-adv-y="1000"  />

      
      <glyph glyph-name="uni26" unicode="&#x26;" d="M219 521Q242 596 309 621Q369 644 415 613Q466 577 448 499Q443 479 432.50 461Q422 443 402 426Q382 409 369.50 399.50Q357 390 329 372Q301 354 293 348Q365 200 413 134Q469 204 480 291Q482 309 500 304Q518 299 517 280Q505 174 439 101Q473 57 511 18Q523 6 504-3Q483-10 468 1Q447 20 409 66Q331-10 225-9Q137-8 97.50 43.50Q58 95 67 164Q81 280 231 364Q198 450 219 521M275 519Q252 452 274 392Q279 396 297.50 408Q316 420 323 424.50Q330 429 344 440.50Q358 452 365 460Q372 468 380 480.50Q388 493 393 507Q411 558 376 575Q344 590 308 564Q285 547 275 519M252 321Q187 277 158 242.50Q129 208 124 164Q118 115 145 78.50Q172 42 233 41Q313 40 382 100Q334 163 252 321Z"  horiz-adv-x="552" vert-adv-y="1000"  />

      
      <glyph glyph-name="uni27" unicode="&#x27;" d="M128 540Q126 532 114.50 529Q103 526 93.50 531Q84 536 87 547L116 674Q119 688 132 691.50Q145 695 155.50 687Q166 679 162 666L128 540Z"  horiz-adv-x="227" vert-adv-y="1000"  />

      
      <glyph glyph-name="uni28" unicode="&#x28;" d="M212-148Q151-52 129.50 48Q108 148 125 275Q142 403 205 505.50Q268 608 370 674Q380 681 390.50 673Q401 665 401.50 653.50Q402 642 392 633Q309 577 255.50 480.50Q202 384 185 269Q170 166 187.50 63Q205-40 254-123Q264-140 244-153Q224-166 212-148Z"  horiz-adv-x="462" vert-adv-y="1000"  />

      
      <glyph glyph-name="uni29" unicode="&#x29;" d="M50-155Q40-162 29.50-154Q19-146 18.50-134.50Q18-123 28-114Q116-54 170.50 50.50Q225 155 238 277Q261 483 166 642Q156 659 176 672Q196 685 208 667Q269 571 290.50 471Q312 371 295 244Q278 116 215 13.50Q152-89 50-155Z"  horiz-adv-x="379" vert-adv-y="1000"  />

      
      <glyph glyph-name="uni2a" unicode="&#x2a;" d="M301 456Q308 449 304.50 439Q301 429 291 423Q281 417 274 423L207 473L200 386Q198 370 176 370Q155 372 156 386L165 474L87 423Q80 418 70.50 424.50Q61 431 58.50 440.50Q56 450 63 456L151 510L76 563Q69 570 72 579.50Q75 589 85.50 595Q96 601 104 596L169 546L179 634Q179 643 190.50 646.50Q202 650 213 646.50Q224 643 223 634L213 546L289 596Q297 601 307 594Q317 587 318.50 577.50Q320 568 313 563L230 508L301 456Z"  horiz-adv-x="338" vert-adv-y="1000"  />

      
      <glyph glyph-name="uni2b" unicode="&#x2b;" d="M222 118Q220 109 206.50 107.50Q193 106 182 111Q171 116 173 125L213 266L113 266Q103 266 100.50 278Q98 290 104 301.50Q110 313 121 313L226 312L265 451Q269 464 282.50 466Q296 468 306.50 461Q317 454 314 443L277 312L379 312Q395 312 393 290Q387 269 371 266L264 266L222 118Z"  horiz-adv-x="483" vert-adv-y="1000"  />

      
      <glyph glyph-name="uni2c" unicode="&#x2c;" d="M61-112Q55-117 46-113.50Q37-110 33.50-103Q30-96 35-90Q76-53 88 1Q65 11 65 35Q65 53 77 64Q89 75 105 75Q120 74 130.50 63.50Q141 53 140 34Q139-6 117-46Q95-86 61-112Z"  horiz-adv-x="250" vert-adv-y="1000"  />

      
      <glyph glyph-name="uni2d" unicode="&#x2d;" d="M143 231Q133 231 130.50 243.50Q128 256 134.50 269Q141 282 152 282L319 282Q329 282 331.50 269Q334 256 327.50 243.50Q321 231 310 231L143 231Z"  horiz-adv-x="462" vert-adv-y="1000"  />

      
      <glyph glyph-name="uni2e" unicode="&#x2e;" d="M82.50 10Q82.50 10 76.75 4.50Q71-1 56-1Q41-1 31 10.50Q21 22 22 37Q23 52 34.50 63Q46 74 62 74Q78 74 87.50 63Q97 52 96 36Q94 21 82.50 10Z"  horiz-adv-x="206" vert-adv-y="1000"  />

      
      <glyph glyph-name="uni2f" unicode="&#x2f;" d="M23 20Q58 76 152.50 320Q247 564 287 629Q307 659 334 648Q353 640 348 626Q348 624 346 622Q290 538 193.50 291Q97 44 67-3Q57-12 44.50-12Q32-12 23.50-2Q15 8 23 20Z"  horiz-adv-x="379" vert-adv-y="1000"  />

      
      <glyph glyph-name="uni30" unicode="&#x30;" d="M309 649Q482 646 436 372Q424 302 403 239Q382 176 349.50 118Q317 60 268.50 26Q220-8 162-8Q85-8 54 65.50Q23 139 44 285Q58 380 92.50 461.50Q127 543 184 596.50Q241 650 309 649M304 600Q263 601 226.50 567Q190 533 165 480Q140 427 123.50 371.50Q107 316 100 265Q72 46 169 46Q222 46 267 97Q312 148 338.50 221Q365 294 378 381Q385 425 387 456Q389 487 384.50 523.50Q380 560 360 579.50Q340 599 304 600Z"  horiz-adv-x="483" vert-adv-y="1000"  />

      
      <glyph glyph-name="uni31" unicode="&#x31;" d="M250 625Q263 658 292 651Q313 645 314 629Q314 625 313 622Q281 523 224.50 282.50Q168 42 155-2Q149-9 136-9.50Q123-10 111-2.50Q99 5 103 13Q208 454 233 541Q162 455 67 401Q57 397 47 406Q37 415 35 425.50Q33 436 39 442Q165 514 250 625Z"  horiz-adv-x="350" vert-adv-y="1000"  />

      
      <glyph glyph-name="uni32" unicode="&#x32;" d="M350 3Q299 4 201 3.50Q103 3 55 3Q32 3 22 16.50Q12 30 17.50 47.50Q23 65 41 76Q125 126 217.50 233Q310 340 335 434Q355 510 329 551.50Q303 593 254 593Q207 592 171 554.50Q135 517 139 454Q141 439 127.50 431Q114 423 99.50 429Q85 435 85 454Q86 544 138 594.50Q190 645 258 646Q333 647 376.50 588.50Q420 530 394 427Q368 325 275.50 214Q183 103 88 50Q216 60 365 51Q385 48 378 26Q372 5 354 3Q352 3 350 3Z"  horiz-adv-x="477" vert-adv-y="1000"  />

      
      <glyph glyph-name="uni33" unicode="&#x33;" d="M209 358Q283 366 326.50 400.50Q370 435 374 491Q379 558 326 583Q278 606 228 576Q174 544 170 472Q169 460 155.50 454.50Q142 449 129.50 453.50Q117 458 117 472Q125 583 209 626Q277 661 348 633Q416 606 430 537Q435 510 430 479Q419 421 377 385Q335 349 281 339Q352 330 380 276Q408 222 395 155Q372 40 277 1Q182-38 102.50 17Q23 72 39 188Q40 198 54.50 201Q69 204 81.50 198Q94 192 92 180Q87 135 106.50 100.50Q126 66 158.50 54Q191 42 226.50 44.50Q262 47 292.50 76.50Q323 106 333 155Q347 223 319.50 269Q292 315 207 314Q196 314 191 325.50Q186 337 191 348Q196 359 209 358Z"  horiz-adv-x="467" vert-adv-y="1000"  />

      
      <glyph glyph-name="uni34" unicode="&#x34;" d="M379 640Q396 657 416.50 649Q437 641 432 622Q419 571 406.50 504.50Q394 438 380 348Q366 258 357 211Q419 211 433 210Q447 209 452.50 197Q458 185 451 174Q444 163 428 164Q394 166 349 166Q328 60 316 10Q310-4 283 1Q262 4 263 14Q263 16 264 17Q274 57 295 164Q117 154 49 160Q35 162 29.50 173.50Q24 185 34 201Q82 264 211 424Q340 584 379 640M367 550Q316 477 222 359Q128 241 100 205Q116 205 154.50 205Q193 205 230 206Q267 207 303 209Q349 469 367 550Z"  horiz-adv-x="508" vert-adv-y="1000"  />

      
      <glyph glyph-name="uni35" unicode="&#x35;" d="M415 645Q431 648 440.50 629Q450 610 434 600Q384 578 320.50 576Q257 574 210 592Q187 463 166 399Q241 423 292.50 416Q344 409 373 377Q402 345 411.50 300Q421 255 412 204Q397 118 339 55Q281-8 198-8Q100-9 58 56Q16 121 36 203Q37 213 50 217Q63 221 75.50 216Q88 211 87 199Q75 132 105 89Q135 46 198 45Q254 44 296.50 89.50Q339 135 353 199Q366 255 350.50 299.50Q335 344 287 364.50Q239 385 151 354Q140 351 128 350Q116 349 108.50 356Q101 363 105 377Q121 423 158 592Q163 615 167.50 626Q172 637 177.50 641.50Q183 646 194 644Q205 642 217 638.50Q229 635 252.50 630.50Q276 626 301 626Q352 624 415 645Z"  horiz-adv-x="488" vert-adv-y="1000"  />

      
      <glyph glyph-name="uni36" unicode="&#x36;" d="M179-9Q97-11 62.50 56Q28 123 37 224Q42 286 60 355Q78 424 108.50 492Q139 560 190 604.50Q241 649 302 649Q350 650 384 628.50Q418 607 433 568Q437 559 426 550Q415 541 402.50 540.50Q390 540 385 548Q365 601 300 600Q252 599 211 551.50Q170 504 147 444.50Q124 385 109 315Q177 425 277 426Q353 427 387.50 366.50Q422 306 408 222Q392 124 328.50 57Q265-10 179-9M180 43Q245 42 290.50 94.50Q336 147 350 224Q362 289 343.50 332.50Q325 376 271 376Q218 375 170 334Q122 293 94 231Q77 45 180 43Z"  horiz-adv-x="491" vert-adv-y="1000"  />

      
      <glyph glyph-name="uni37" unicode="&#x37;" d="M345 639Q364 644 377.50 631Q391 618 381 603Q357 564 328.50 508.50Q300 453 277 404Q254 355 224.50 286Q195 217 179.50 178Q164 139 139 76.50Q114 14 110 4Q104-3 89.50-3.50Q75-4 64.50 3.50Q54 11 60 24Q220 439 311 588Q167 552 48 591Q35 595 34.50 609Q34 623 42.50 634Q51 645 60 642Q183 599 345 639Z"  horiz-adv-x="385" vert-adv-y="1000"  />

      
      <glyph glyph-name="uni38" unicode="&#x38;" d="M131 531Q141 616 219 643.50Q297 671 362 627.50Q427 584 407 499Q388 420 278 351Q405 257 393 154Q384 80 330.50 35Q277-10 180-9Q97-8 58 44Q19 96 27 164Q41 283 199 359Q159 390 140.50 435.50Q122 481 131 531M185 522Q172 450 243 380Q288 407 318.50 441.50Q349 476 355 510Q369 563 322 591Q280 616 235 596Q192 575 185 522M230 325Q168 301 129.50 258Q91 215 85 164Q79 116 105.50 79.50Q132 43 188 41Q252 39 291.50 74.50Q331 110 335 164Q342 250 230 325Z"  horiz-adv-x="455" vert-adv-y="1000"  />

      
      <glyph glyph-name="uni39" unicode="&#x39;" d="M175-9Q134-10 101 9Q68 28 50 60Q44 70 63.50 83Q83 96 90 86Q123 39 177 40Q215 41 246.50 64.50Q278 88 300 128Q322 168 337 210.50Q352 253 363 303Q311 216 207 214Q152 214 117 244Q82 274 71.50 319.50Q61 365 69 418Q85 517 143.50 583.50Q202 650 288 649Q376 651 411 585Q446 519 438 416Q434 366 423.50 313.50Q413 261 392 202Q371 143 343 97.50Q315 52 271 21.50Q227-9 175-9M213 264Q340 266 382 422Q398 596 287 597Q223 598 181.50 546Q140 494 127 416Q123 377 125 343.50Q127 310 149.50 287Q172 264 213 264Z"  horiz-adv-x="474" vert-adv-y="1000"  />

      
      <glyph glyph-name="uni3a" unicode="&#x3a;" d="M173 316.50Q173 316.50 167.50 310.75Q162 305 146 305Q130 305 119 317Q108 329 108 345Q108 361 119 371.50Q130 382 146 383Q162 383 173.50 371.50Q185 360 185 344Q184 328 173 316.50M70-1Q54-1 42.50 10.50Q31 22 31 38Q31 54 42 65Q53 76 70 77Q85 77 96.50 65Q108 53 108 37Q107 21 96 10Q85-1 70-1Z"  horiz-adv-x="275" vert-adv-y="1000"  />

      
      <glyph glyph-name="uni3b" unicode="&#x3b;" d="M196 316.50Q196 316.50 190.50 310.75Q185 305 169 305Q153 305 142 317Q131 329 131 345Q131 361 141.50 371.50Q152 382 169 383Q185 383 196.50 371.50Q208 360 208 344Q207 328 196 316.50M49-111Q43-116 34.50-112.50Q26-109 23-102.50Q20-96 25-90Q66-53 78 1Q55 11 55 35Q55 53 66 63.50Q77 74 92 75Q108 75 119.50 64.50Q131 54 130 34Q129-6 106-46Q83-86 49-111Z"  horiz-adv-x="318" vert-adv-y="1000"  />

      
      <glyph glyph-name="uni3c" unicode="&#x3c;" d="M161 105L63 271Q43 304 74 330L245 473Q255 482 267 475.50Q279 469 281 456.50Q283 444 272 433L109 296L207 133Q211 125 202 113.50Q193 102 181 99Q169 96 161 105Z"  horiz-adv-x="345" vert-adv-y="1000"  />

      
      <glyph glyph-name="uni3d" unicode="&#x3d;" d="M135 321Q125 321 122.50 332.50Q120 344 126 355.50Q132 367 143 367L401 367Q417 367 415 345Q409 324 393 321L135 321M114 208Q104 208 101.50 219.50Q99 231 105 242.50Q111 254 122 254L380 254Q396 254 394 232Q388 211 372 208L114 208Z"  horiz-adv-x="505" vert-adv-y="1000"  />

      
      <glyph glyph-name="uni3e" unicode="&#x3e;" d="M174 469L272 303Q292 270 261 244L90 101Q80 92 68 98.50Q56 105 54 117.50Q52 130 63 141L226 278L129 441Q124 449 133 460.50Q142 472 154 475Q166 478 174 469Z"  horiz-adv-x="345" vert-adv-y="1000"  />

      
      <glyph glyph-name="uni3f" unicode="&#x3f;" d="M99 161Q101 191 112 219Q123 247 134.50 263Q146 279 166 303Q181 321 225 363.50Q269 406 295 441.50Q321 477 332 519Q358 619 282 640Q232 654 188.50 618.50Q145 583 134 515Q132 499 117.50 493.50Q103 488 90.50 496Q78 504 80 522Q96 620 157 665Q218 710 293 696Q352 685 381 637Q410 589 391 514Q377 459 347.50 419Q318 379 269.50 336Q221 293 203 273Q152 217 147 159Q146 149 134 145Q122 141 110.50 146Q99 151 99 161M138.50 10Q138.50 10 132.75 4.50Q127-1 112-1Q97-1 87 10.50Q77 22 78 37Q79 52 90.50 63Q102 74 118 74Q134 74 143.50 63Q153 52 152 36Q150 21 138.50 10Z"  horiz-adv-x="453" vert-adv-y="1000"  />

      
      <glyph glyph-name="uni40" unicode="&#x40;" d="M457 541Q571 540 639.50 487Q708 434 710 325Q713 212 644.50 117Q576 22 481 22Q445 22 429.50 50Q414 78 424 126Q402 91 387.50 71.50Q373 52 347 34Q321 16 292 16Q243 15 221.50 54Q200 93 210.50 152Q221 211 257 267Q323 367 411 382Q450 390 492.50 379Q535 368 567 340Q576 330 561.50 315.50Q547 301 536 310Q481 355 421 341Q386 334 353.50 305Q321 276 297 234Q271 188 265.50 138.50Q260 89 280 67Q301 45 338 72.50Q375 100 411.50 163Q448 226 468 300Q471 311 483.50 312Q496 313 506.50 307Q517 301 515 293Q513 284 495.50 217.50Q478 151 473 120Q468 92 470.50 78.50Q473 65 489 65Q544 65 583 111.50Q622 158 637.50 214.50Q653 271 652 323Q651 400 599.50 443.50Q548 487 458 489Q324 492 233.50 400Q143 308 123 177Q106 68 141-7.50Q176-83 252-103.50Q328-124 439-82Q452-77 456-95Q461-118 445-125Q444-126 443-126Q308-175 218-148.50Q128-122 86.50-34.50Q45 53 62 178Q82 326 190 434.50Q298 543 457 541Z"  horiz-adv-x="792" vert-adv-y="1000"  />

      
      <glyph glyph-name="uni41" unicode="&#x41;" d="M149-10Q89-10 64.50 31Q40 72 56 132Q79 214 159 256.50Q239 299 332 286Q447 572 516 641Q557 682 594.50 687.50Q632 693 650.50 664.50Q669 636 658 585Q610 356 588 265Q708 277 768 351Q778 363 786 353Q795 342 785 326Q752 278 695.50 251Q639 224 577 219Q572 196 561.50 153.50Q551 111 543.50 77Q536 43 533 13Q532 4 516.50 0.50Q501-3 486.50 1.50Q472 6 474 15Q481 62 520 217Q507 217 484.50 220Q462 223 426.50 228Q391 233 368 236Q320 115 271.50 52.50Q223-10 149-10M531 262Q581 458 610 599Q617 635 599.50 641.50Q582 648 557 622Q540 605 522.50 578Q505 551 492 527.50Q479 504 461 463.50Q443 423 435 403Q427 383 409 337Q391 291 387 281Q514 263 531 262M153 41Q187 41 216 70Q245 99 259 126Q273 153 305 224Q308 229 309.50 233Q311 237 313 241Q152 246 114 127Q102 92 112 66.50Q122 41 153 41Z"  horiz-adv-x="742" vert-adv-y="1000"  />

      
      <glyph glyph-name="uni42" unicode="&#x42;" d="M514 700Q624 699 686 641Q748 583 734 498Q725 444 680 406.50Q635 369 584 361Q646 351 692 300.50Q738 250 731 178Q722 84 664.50 35.50Q607-13 507-9Q471-8 438.50 3Q406 14 386 26.50Q366 39 332 63Q310 29 274.50 10.50Q239-8 202-9Q157-9 126 15.50Q95 40 96 83Q97 137 134 163.50Q171 190 222 183.50Q273 177 317 143Q341 202 364.50 291Q388 380 402.50 436Q417 492 447 538.50Q477 585 521 593Q540 597 546 580Q552 563 532 553Q514 545 500.50 531Q487 517 478 495Q469 473 463.50 457Q458 441 451.50 414Q445 387 442 377Q532 372 594.50 402.50Q657 433 672 497Q687 561 646.50 603Q606 645 513 646Q450 647 394 624Q338 601 306.50 563Q275 525 269 476Q263 427 300 375Q310 360 291 347Q272 334 262 347Q223 379 212.50 426Q202 473 215 516Q228 559 256 592Q350 701 514 700M429 336L414 278Q398 221 385 182Q372 143 356 108Q415 58 485.50 46Q556 34 609.50 69Q663 104 669 179Q674 242 637.50 280.50Q601 319 545 329Q490 339 429 336M221 137Q175 144 155 110Q138 80 162 58Q180 40 217 41Q260 42 295 100Q250 133 221 137Z"  horiz-adv-x="818" vert-adv-y="1000"  />

      
      <glyph glyph-name="uni43" unicode="&#x43;" d="M486 699Q551 695 577 641Q603 587 570 516Q532 437 432.50 423.50Q333 410 257 471Q211 375 208 278Q199 45 338 43Q410 42 475 86.50Q540 131 584 238Q587 242 594 241Q601 240 607.50 233.50Q614 227 611 221Q563 101 496 47Q429-7 331-9Q230-10 183.50 69Q137 148 143 269Q151 406 218 523Q163 607 161 678Q159 691 176 693Q197 696 202 680L203 676Q204 632 244 564Q348 707 486 699M475 644Q364 650 282 517Q341 468 411.50 475Q482 482 510 526Q537 569 526 605.50Q515 642 475 644Z"  horiz-adv-x="585" vert-adv-y="1000"  />

      
      <glyph glyph-name="uni44" unicode="&#x44;" d="M465 699Q608 695 686.50 600Q765 505 763 366Q762 294 744.50 227Q727 160 695 104.50Q663 49 609.50 17.50Q556-14 490-9Q375-1 303 64Q255-10 181-10Q121-11 92 18.50Q63 48 66 89Q71 141 108 165Q145 189 194 182Q243 175 286 143Q302 185 333 297Q364 409 394 480.50Q424 552 462 583Q477 595 495 581Q511 569 500 558Q461 518 430.50 429Q400 340 374 243Q348 146 329 109Q355 84 404 64.50Q453 45 496 44Q590 41 645 137Q700 233 702 366Q704 489 640 567.50Q576 646 454 646Q397 646 348 619Q299 592 273.50 552Q248 512 248 463.50Q248 415 281 376Q287 369 280.50 357.50Q274 346 263 342.50Q252 339 242 346Q189 406 189.50 472.50Q190 539 236 598Q274 646 334 673.50Q394 701 465 699M187 138Q148 142 129 117Q110 92 125 65Q140 38 184 38Q192 38 199 39.50Q206 41 211 42.50Q216 44 222.50 49Q229 54 232 56Q235 58 241.50 65.50Q248 73 250 75.50Q252 78 259 87.50Q266 97 268 99Q225 133 187 138Z"  horiz-adv-x="835" vert-adv-y="1000"  />

      
      <glyph glyph-name="uni45" unicode="&#x45;" d="M228 761Q226 696 241 657Q285 694 347.50 699.50Q410 705 454.50 675.50Q499 646 497 593Q495 554 463.50 528.50Q432 503 377 508Q289 516 242 573Q219 517 261 460.50Q303 404 381 396Q394 395 391.50 372.50Q389 350 376 351Q329 354 280 338.50Q231 323 189.50 279.50Q148 236 143 172Q138 117 169 80.50Q200 44 254 43Q420 39 505 238Q508 242 515 241Q522 240 528.50 234Q535 228 532 221Q440-18 240-9Q165-5 119 46.50Q73 98 78 167Q83 253 142.50 315Q202 377 283 383Q202 409 180 488Q158 567 209 634Q193 678 196 761Q196 771 212 772.50Q228 774 228 761M270 615Q311 562 376 558Q406 555 422 566.50Q438 578 438 596Q438 627 406.50 641.50Q375 656 334.50 648Q294 640 270 615Z"  horiz-adv-x="506" vert-adv-y="1000"  />

      
      <glyph glyph-name="uni46" unicode="&#x46;" d="M504 680Q513 696 530 698.50Q547 701 559 692Q571 683 567 671Q530 563 470 326Q477 326 539 332Q547 333 551 323.50Q555 314 552 303.50Q549 293 538 292Q485 286 459 285Q418 123 376 57Q334-9 251-10Q190-10 153.50 27.50Q117 65 121 122Q125 179 173 230Q181 242 198 231Q215 220 209 208Q181 170 178.50 131Q176 92 198.50 67.50Q221 43 263 43Q313 44 338.50 95Q364 146 399 272Q401 280 402 284Q398 284 358 283Q318 282 310 283Q289 284 292 303.50Q295 323 311 323Q377 321 414 326Q427 373 440 425Q453 477 461 506.50Q469 536 476 564Q483 592 487.50 606Q492 620 495 626Q471 602 438.50 593.50Q406 585 374 588Q342 591 310 595Q278 599 245 595.50Q212 592 187 576Q156 555 150 523Q144 491 162 474Q176 458 216 459.50Q256 461 276 478Q282 485 291.50 480Q301 475 305.50 465.50Q310 456 305 447Q282 422 245.50 413Q209 404 176.50 410.50Q144 417 125 433Q98 456 90.50 490.50Q83 525 102.50 562Q122 599 168 622Q216 646 267.50 647Q319 648 354 639Q389 630 430 637.50Q471 645 504 680Z"  horiz-adv-x="598" vert-adv-y="1000"  />

      
      <glyph glyph-name="uni47" unicode="&#x47;" d="M520 697Q604 695 642 648Q680 601 649 524Q622 455 558 424Q494 393 418 406.50Q342 420 278 474Q247 427 227.50 355Q208 283 206 212.50Q204 142 236.50 92Q269 42 336 41Q466 41 563 255Q569 262 581 262.50Q593 263 604 256.50Q615 250 613 243Q575 114 547-4Q612 20 667.50 84.50Q723 149 756 238Q759 242 766 241Q773 240 779.50 233.50Q786 227 783 221Q735 107 679 44.50Q623-18 532-58Q508-154 479-208.50Q450-263 424-278.50Q398-294 363-295Q326-296 305-276Q284-256 285-220Q286-125 486-30Q523 103 527 120Q441-12 322-9Q232-7 186.50 54.50Q141 116 141.50 201.50Q142 287 167 374.50Q192 462 234 519Q173 590 173 684Q172 698 192 696Q213 693 214 678Q214 677 214 675Q219 607 261 556Q309 618 380.50 658Q452 698 520 697M516 644Q463 645 406 610Q349 575 304 515Q355 475 414 463Q473 451 520.50 470Q568 489 589 535Q610 582 585 612.50Q560 643 516 644M473-84Q438-106 417.50-120Q397-134 374-158.50Q351-183 346-204Q337-244 370-244Q404-244 428-206Q452-168 473-84Z"  horiz-adv-x="757" vert-adv-y="1000"  />

      
      <glyph glyph-name="uni48" unicode="&#x48;" d="M498 685Q504 696 519.50 698Q535 700 546.50 692Q558 684 554 671Q542 634 454 293Q467 291 499.50 284Q532 277 563 271.50Q594 266 623 265Q629 290 644 356.50Q659 423 668.50 462.50Q678 502 695.50 557.50Q713 613 733 655Q739 663 753 662Q767 661 779 652Q791 643 787 634Q770 599 753 547.50Q736 496 727.50 463Q719 430 702.50 357.50Q686 285 682 267Q778 279 843 349Q855 362 865 350Q879 335 856 310Q780 229 671 219Q661 181 639 107Q617 33 611 10Q609 2 592.50 0Q576-2 562 3Q548 8 551 17Q600 175 611 218Q574 221 511 234Q448 247 439 248Q407 114 361 50.50Q315-13 238-11Q164-9 143 35Q122 79 136 141Q152 209 225.50 259Q299 309 395 297Q413 361 430 424.50Q447 488 461.50 545.50Q476 603 482 624Q460 603 429.50 594.50Q399 586 376 586.50Q353 587 314.50 591Q276 595 258 595Q205 595 173.50 582Q142 569 136 527Q132 498 152.50 476Q173 454 204 453Q235 452 269 477Q275 484 284.50 479Q294 474 297.50 464.50Q301 455 295 447Q259 408 203 405Q147 402 115 433Q94 452 84.50 481Q75 510 82 540Q105 641 258 643Q283 643 323 638Q363 633 386.50 632Q410 631 441 643Q472 655 498 685M385 251Q315 262 260.50 226.50Q206 191 194 132Q175 42 243 42Q296 42 328.50 96.50Q361 151 385 251Z"  horiz-adv-x="814" vert-adv-y="1000"  />

      
      <glyph glyph-name="uni49" unicode="&#x49;" d="M465 679Q471 695 487.50 697.50Q504 700 516.50 691.50Q529 683 526 671Q488 544 416 265Q379 119 336.50 54.50Q294-10 212-11Q151-11 114.50 26.50Q78 64 82 121.50Q86 179 134 230Q142 242 159 231Q176 220 170 208Q142 170 139.50 131Q137 92 159.50 67Q182 42 224 42Q245 42 263 54.50Q281 67 292 81.50Q303 96 315 126.50Q327 157 332.50 176Q338 195 349 233Q373 321 397.50 414.50Q422 508 434 552Q446 596 452 614Q417 576 369 544.50Q321 513 286 497Q251 481 223 457.50Q195 434 189 407Q175 339 235 333Q245 332 248 320.50Q251 309 245 298.50Q239 288 227 289Q193 292 169.50 305.50Q146 319 137 337.50Q128 356 124.50 377Q121 398 127 416Q137 460 175.50 491Q214 522 259.50 539Q305 556 364.50 592.50Q424 629 465 679Z"  horiz-adv-x="504" vert-adv-y="1000"  />

      
      <glyph glyph-name="uni4a" unicode="&#x4a;" d="M150-291Q96-289 65-249.50Q34-210 49-152Q59-116 82-88.50Q105-61 141-41.50Q177-22 207.50-10Q238 2 285 17Q294 20 298 21Q447 586 453 608Q418 572 371 541.50Q324 511 290 495.50Q256 480 228.50 457Q201 434 196 407Q182 339 242 333Q252 332 255 320.50Q258 309 252 298.50Q246 288 234 289Q200 292 176.50 305.50Q153 319 144 337.50Q135 356 131.50 377Q128 398 134 416Q142 452 168 478Q194 504 231 522Q268 540 308 558Q348 576 393.50 607Q439 638 472 679Q483 704 510 698Q530 693 531 678L530 672Q511 610 450 375Q389 140 363 46Q426 60 485 109.50Q544 159 576 238Q579 242 586 241Q593 240 599 234Q605 228 603 222Q587 178 563 142.50Q539 107 515 85.50Q491 64 460.50 46Q430 28 408 19Q386 10 359 0Q353-2 350-3Q322-133 300-181Q249-295 150-291M151-240Q177-241 202.50-222.50Q228-204 246-166Q266-123 286-25Q137-77 108-151Q94-192 107.50-215.50Q121-239 151-240Z"  horiz-adv-x="577" vert-adv-y="1000"  />

      
      <glyph glyph-name="uni4b" unicode="&#x4b;" d="M718 684Q726 696 740 696Q754 696 766 686.50Q778 677 774 667Q729 552 658 459Q587 366 503 337Q533 324 552 298.50Q571 273 578.50 248.50Q586 224 591 186Q595 158 597 144.50Q599 131 605.50 101.50Q612 72 618 56Q624 40 635 17Q646-6 659-18Q672-30 691-39Q710-48 732-48Q746-48 741-67Q732-89 712-93Q689-93 669.50-88Q650-83 635-70.50Q620-58 608.50-47.50Q597-37 587-14Q577 9 571.50 21.50Q566 34 559.50 64Q553 94 550.50 105Q548 116 542 150.50Q536 185 535 192Q524 256 495 286.50Q466 317 421 312Q374 127 332.50 58.50Q291-10 205-11Q144-11 107.50 26.50Q71 64 75 121.50Q79 179 127 230Q135 242 152 231Q169 220 163 208Q135 170 132.50 131Q130 92 152.50 67Q175 42 217 42Q238 42 256 54.50Q274 67 285 81.50Q296 96 308 126.50Q320 157 325.50 176Q331 195 342 233Q366 320 390.50 414Q415 508 426.50 552Q438 596 445 614Q410 576 362 544.50Q314 513 279 497Q244 481 216 457.50Q188 434 182 407Q168 339 228 333Q238 332 241 320.50Q244 309 238 298.50Q232 288 220 289Q186 292 162.50 305.50Q139 319 130 337.50Q121 356 117.50 377Q114 398 120 416Q130 460 168.50 491Q207 522 252.50 539Q298 556 357.50 592.50Q417 629 458 679Q464 703 494 698Q519 694 522 678L521 671Q487 571 433 358Q465 366 494.50 382Q524 398 546 416Q568 434 590 460Q612 486 626.50 507Q641 528 657.50 558Q674 588 682 605Q690 622 702 649Q714 676 718 684Z"  horiz-adv-x="749" vert-adv-y="1000"  />

      
      <glyph glyph-name="uni4c" unicode="&#x4c;" d="M462 676Q468 703 500 699Q524 696 527 680L527 674Q509 614 457 394.50Q405 175 369 107Q388 89 414 61Q440 33 457 16Q474-1 497.50-22Q521-43 541.50-54Q562-65 587-73Q612-81 640.50-79.50Q669-78 702-67Q714-59 725-77Q739-98 721-116Q675-132 632-131.50Q589-131 559.50-122.50Q530-114 494.50-88.50Q459-63 440.50-45Q422-27 387 10Q352 47 337 61Q310 26 284 9Q258-8 216-10Q147-13 120 24.50Q93 62 108 109Q118 141 149.50 161Q181 181 230 178Q279 175 327 140Q356 216 397.50 392Q439 568 453 616Q418 577 370 545.50Q322 514 286.50 497.50Q251 481 223 457.50Q195 434 189 407Q175 339 235 333Q245 332 248 320.50Q251 309 245 298.50Q239 288 227 289Q193 292 169.50 305.50Q146 319 137 337.50Q128 356 124.50 377Q121 398 127 416Q135 452 160.50 477.50Q186 503 223 521Q260 539 299 557Q338 575 383.50 605.50Q429 636 462 676M162 98Q154 74 168 55Q182 36 219 38Q271 41 306 97Q273 131 226 135Q179 139 162 98Z"  horiz-adv-x="573" vert-adv-y="1000"  />

      
      <glyph glyph-name="uni4d" unicode="&#x4d;" d="M1035-85Q1001-69 981-40.50Q961-12 955.50 29.50Q950 71 951.50 113.50Q953 156 966.50 215.50Q980 275 993.50 324Q1007 373 1029 442Q1038 470 1042 485Q1046 500 1053 528.50Q1060 557 1060 573.50Q1060 590 1057 609Q1054 628 1041.50 636.50Q1029 645 1009 645Q929 644 768 398Q761 373 739 283Q717 193 697 119Q677 45 663 9Q655-11 624-11Q600-10 601 2Q602 4 602 5Q627 82 653.50 182Q680 282 702 375Q724 468 731 492Q739 523 743 546.50Q747 570 745.50 594.50Q744 619 731 632Q718 645 693 645Q647 644 577.50 566.50Q508 489 446 387Q364 89 334 13Q325-9 293-9Q269-9 270 4Q271 6 271 7Q319 146 361 296Q415 493 448 609Q413 573 366 542.50Q319 512 284.50 496Q250 480 222.50 457Q195 434 190 407Q176 339 236 333Q246 332 249 320.50Q252 309 246 298.50Q240 288 228 289Q194 292 170.50 305.50Q147 319 138 337.50Q129 356 125.50 377Q122 398 128 416Q138 460 177 491Q216 522 261.50 539.50Q307 557 366.50 593.50Q426 630 467 680Q471 696 486 698Q501 700 513 691.50Q525 683 522 671Q515 644 500.50 589Q486 534 478 506Q608 699 708 698Q838 697 798 512Q922 699 1032 698Q1056 698 1074 691Q1092 684 1102 671Q1112 658 1118 643Q1124 628 1123.50 607Q1123 586 1122 568.50Q1121 551 1115.50 527Q1110 503 1106 488.50Q1102 474 1095.50 452.50Q1089 431 1087 424Q1080 396 1067 351Q1054 306 1046 277.50Q1038 249 1028.50 209Q1019 169 1015 142.50Q1011 116 1010 85Q1009 54 1015 33Q1021 12 1033.50-7Q1046-26 1067-38Q1083-44 1072-67Q1060-90 1039-86L1035-85Z"  horiz-adv-x="1170" vert-adv-y="1000"  />

      
      <glyph glyph-name="uni4e" unicode="&#x4e;" d="M736 698Q772 698 796 685Q820 672 829 648Q838 624 841.50 599Q845 574 839 541Q833 508 828 486Q823 464 816 438Q813 428 812 424Q806 400 794 359Q782 318 775 292.50Q768 267 758.50 229.50Q749 192 745 167.50Q741 143 737 112.50Q733 82 735.50 61Q738 40 743.50 19.50Q749-1 761-15Q773-29 791-38Q801-44 800.50-57Q800-70 788-80.50Q776-91 762-86Q740-76 723.50-62Q707-48 697.50-27.50Q688-7 681 11.50Q674 30 674.50 61Q675 92 675 113Q675 134 683 173.50Q691 213 695.50 235Q700 257 713 303Q726 349 732.50 370.50Q739 392 754 442Q765 476 770.50 507.50Q776 539 776.50 572.50Q777 606 762.50 625.50Q748 645 718 645Q658 644 573.50 543.50Q489 443 430 331Q424 311 403.50 236.50Q383 162 364.50 102Q346 42 331 8Q323-9 294-9Q270-10 270 4Q270 7 271 9Q292 69 319.50 158Q347 247 361.50 299Q376 351 409.50 472Q443 593 447 608Q412 572 365 541.50Q318 511 284 495.50Q250 480 222.50 457Q195 434 190 407Q176 339 236 333Q246 332 249 320.50Q252 309 246 298.50Q240 288 228 289Q194 292 170.50 305.50Q147 319 138 337.50Q129 356 125.50 377Q122 398 128 416Q136 452 161.50 478Q187 504 224 522Q261 540 301 557.50Q341 575 386.50 606Q432 637 465 678Q469 695 484.50 698Q500 701 512 692Q524 683 521 671L461 449Q602 699 736 698Z"  horiz-adv-x="888" vert-adv-y="1000"  />

      
      <glyph glyph-name="uni4f" unicode="&#x4f;" d="M433 697Q490 689 528 657Q566 625 581 582.50Q596 540 598.50 485Q601 430 595 384.50Q589 339 577 294Q647 305 717 345Q725 351 727 336Q730 313 716 305Q639 260 563 249Q524 136 453 62Q382-12 290-10Q183-9 135 76Q97 141 106 246.50Q115 352 167 435Q174 441 186 438.50Q198 436 206 424.50Q214 413 208 402Q184 354 172.50 294Q161 234 165 178Q169 122 200.50 82.50Q232 43 289 41Q358 38 412 96Q466 154 499 246Q367 252 287 349.50Q207 447 231 563Q247 637 303.50 671.50Q360 706 433 697M429 643Q318 657 293 555Q270 458 335.50 378Q401 298 514 291Q527 335 532.50 388.50Q538 442 534 499Q530 556 503.50 596.50Q477 637 429 643Z"  horiz-adv-x="692" vert-adv-y="1000"  />

      
      <glyph glyph-name="uni50" unicode="&#x50;" d="M427 595Q448 598 458 580Q466 564 446 557Q431 551 418 540Q405 529 394.50 510.50Q384 492 376.50 476Q369 460 361 432Q353 404 349 387.50Q345 371 337.50 339Q330 307 327 294Q442 251 518 299.50Q594 348 603 453Q610 537 554.50 587.50Q499 638 415 644Q366 647 318.50 632Q271 617 237.50 588.50Q204 560 184.50 525.50Q165 491 169.50 450Q174 409 205 373Q215 358 196.50 345Q178 332 168 344Q116 393 116 468Q116 566 202 633Q288 700 407 698Q523 696 600.50 626.50Q678 557 664 442Q655 371 621 321.50Q587 272 538.50 250Q490 228 432 229Q374 230 317 254Q309 223 296 162Q283 101 273 65Q263 29 251 9Q241-8 215 0Q191 8 198 26Q199 28 200 30Q214 55 230.50 123.50Q247 192 263 267Q279 342 300 416Q321 490 354 540.50Q387 591 427 595Z"  horiz-adv-x="694" vert-adv-y="1000"  />

      
      <glyph glyph-name="uni51" unicode="&#x51;" d="M674-114Q647-119 627-119Q607-119 586.50-114.50Q566-110 550-104Q534-98 515-85Q496-72 484-63.50Q472-55 453-36.50Q434-18 425-9Q416 0 396.50 21.50Q377 43 370 50Q309-9 228-9Q175-9 148 17Q121 43 121 79Q121 119 153 150Q185 181 236 181Q278 181 310 163Q342 145 380 111Q571 289 582 487Q586 565 542.50 606Q499 647 415 647Q319 647 262 588.50Q205 530 205 437Q205 374 238 329Q271 284 333 275Q342 274 344.50 262.50Q347 251 341 241Q335 231 326 232Q237 239 188.50 295Q140 351 141 433Q142 553 221 626Q300 699 424 699Q526 699 585.50 647Q645 595 645 503Q645 394 581.50 279.50Q518 165 413 79Q423 70 469 22Q515-26 549.50-46.50Q584-67 628-67Q645-67 670-62Q674-62 677.50-66Q681-70 682.50-76.50Q684-83 684.50-90Q685-97 682-104Q679-111 674-114M230 39Q285 39 340 83Q288 138 234 138Q209 138 193 121Q177 104 177 82Q177 64 190.50 51.50Q204 39 230 39Z"  horiz-adv-x="686" vert-adv-y="1000"  />

      
      <glyph glyph-name="uni52" unicode="&#x52;" d="M668-95Q525-86 497 161Q487 250 434 271Q385 267 347 272Q291 59 257 9Q248-1 234-0.50Q220 0 209.50 10.50Q199 21 206 34Q230 68 252.50 143Q275 218 297.50 311.50Q320 405 331 440Q369 557 426 592Q446 604 469 593Q491 582 474 569Q435 537 409 483Q383 429 358 314Q475 306 545.50 351Q616 396 625 484Q633 564 581.50 604Q530 644 435 644Q340 644 269 591.50Q198 539 198 463Q198 413 232 373Q239 363 231.50 352.50Q224 342 213 340Q202 338 195 344Q129 398 140 488Q154 585 240.50 641.50Q327 698 441 698Q561 698 629 641Q697 584 687 487Q670 328 504 283Q538 258 553 161Q558 130 562.50 108.50Q567 87 578 55.50Q589 24 602.50 4Q616-16 639-31.50Q662-47 691-49Q707-49 701-68Q695-90 675-94Q672-95 668-95Z"  horiz-adv-x="732" vert-adv-y="1000"  />

      
      <glyph glyph-name="uni53" unicode="&#x53;" d="M538 534Q537 522 525.50 517.50Q514 513 503 518Q492 523 493 534Q496 591 467.50 619Q439 647 389 648Q349 650 319.50 625Q290 600 286 547Q284 510 303.50 473Q323 436 352.50 404Q382 372 411.50 339Q441 306 460.50 265Q480 224 478 182Q473 93 418.50 41.50Q364-10 270-9Q164-8 118.50 75Q73 158 113 274Q114 282 127 283Q140 284 151 277.50Q162 271 158 260Q130 165 167 104.50Q204 44 278 43Q342 42 377.50 79.50Q413 117 417 187Q419 224 398.50 260.50Q378 297 348 328Q318 359 288.50 391Q259 423 240 464Q221 505 225 550Q232 621 276.50 660.50Q321 700 392 700Q472 699 510.50 652.50Q549 606 538 534Z"  horiz-adv-x="577" vert-adv-y="1000"  />

      
      <glyph glyph-name="uni54" unicode="&#x54;" d="M250 695Q303 706 358.50 694.50Q414 683 452.50 662.50Q491 642 536.50 624Q582 606 615 606Q711 606 726 679Q726 693 747 689Q768 685 768 671Q758 602 704 574Q624 532 497 585Q485 545 462.50 451Q440 357 416 265Q379 120 336.50 55Q294-10 216-11Q140-12 105.50 35.50Q71 83 84 142Q96 190 134 230Q142 242 158.50 231Q175 220 169 208Q126 149 143 94.50Q160 40 228 42Q252 43 270.50 58Q289 73 304 104.50Q319 136 328 162.50Q337 189 349 233Q376 335 398 417.50Q420 500 430.50 541Q441 582 448 607Q333 660 264 649Q205 640 187 595Q172 555 199 530Q236 496 309 534Q317 539 325.50 531.50Q334 524 335.50 514Q337 504 330 498Q288 471 250 464Q212 457 186 467.50Q160 478 143 498.50Q126 519 121 546Q112 594 144.50 637Q177 680 250 695Z"  horiz-adv-x="687" vert-adv-y="1000"  />

      
      <glyph glyph-name="uni55" unicode="&#x55;" d="M446 683Q450 697 465.50 698Q481 699 492.50 689Q504 679 500 665Q483 609 468.50 559Q454 509 446 478.50Q438 448 415.50 359.50Q393 271 377 209Q369 180 366.50 153.50Q364 127 366 101.50Q368 76 381.50 61Q395 46 420 46Q485 47 552.50 115.50Q620 184 640 251Q685 397 748 653Q753 673 776.50 667.50Q800 662 802 640L801 625Q745 438 699 253Q675 164 677 104.50Q679 45 714 46Q753 47 796 106.50Q839 166 867 238Q870 243 877 241.50Q884 240 890 234Q896 228 894 222Q883 195 874.50 176.50Q866 158 851 129Q836 100 820.50 80Q805 60 786.50 40Q768 20 746 10Q724 0 700 0Q661 0 642 37Q623 74 628 139Q589 76 532 32.50Q475-11 410-10Q364-10 338 11Q312 32 306.50 70.50Q301 109 306 150Q311 191 325 245Q372 423 423 605Q381 561 318 526.50Q255 492 216 466.50Q177 441 170 407Q156 339 216 333Q226 332 229 320.50Q232 309 226 298.50Q220 288 208 289Q174 292 150.50 305.50Q127 319 118 337.50Q109 356 105.50 377Q102 398 108 416Q116 453 141.50 479Q167 505 204 523Q241 541 280.50 558.50Q320 576 365.50 608Q411 640 446 683Z"  horiz-adv-x="868" vert-adv-y="1000"  />

      
      <glyph glyph-name="uni56" unicode="&#x56;" d="M769 797Q853 729 853 612Q853 536 818 461Q783 386 723 333Q712 324 674.50 291.50Q637 259 623.50 246.50Q610 234 578.50 203Q547 172 528 148Q509 124 483 86.50Q457 49 433 8Q421-10 399-6.50Q377-3 378 23Q393 131 399.50 317Q406 503 426 613Q393 575 346 544Q299 513 265 497Q231 481 203.50 458Q176 435 172 407Q163 338 220 333Q230 332 233.50 320Q237 308 231.50 297.50Q226 287 214 289Q158 294 130 327.50Q102 361 109 416Q116 452 141.50 478Q167 504 203.50 522Q240 540 279.50 558Q319 576 363 607.50Q407 639 439 681Q448 704 478 700Q500 698 500 685Q500 682 499 680Q476 624 465.50 535.50Q455 447 450 302Q445 157 442 117Q466 156 501.50 197Q537 238 563 262.50Q589 287 632 325Q675 363 689 376Q741 424 767.50 487.50Q794 551 794 615Q794 704 732 757Q719 770 736.50 788.50Q754 807 769 797Z"  horiz-adv-x="849" vert-adv-y="1000"  />

      
      <glyph glyph-name="uni57" unicode="&#x57;" d="M1110 726Q1126 726 1131.50 705Q1137 684 1121 677Q1094 668 1072 639Q1050 610 1033 561Q1016 512 1005 469.50Q994 427 979 360.50Q964 294 955 260Q922 134 866 62Q810-10 716-10Q653-10 623 32.50Q593 75 600 135Q570 73 517 31.50Q464-10 410-9Q256-7 324 245Q414 575 423 605Q381 561 318 526.50Q255 492 216 466.50Q177 441 170 407Q156 339 216 333Q226 332 229 320.50Q232 309 226 298.50Q220 288 208 289Q174 292 150.50 305.50Q127 319 118 337.50Q109 356 105.50 377Q102 398 108 416Q118 460 157 491Q196 522 242 539.50Q288 557 347.50 594Q407 631 447 681Q459 702 482.50 695.50Q506 689 498 661Q448 486 378 209Q370 180 367 153.50Q364 127 366 101Q368 75 381.50 60Q395 45 420 45Q480 46 537.50 120.50Q595 195 626 305Q634 335 672 474.50Q710 614 728 673Q734 693 757 687Q780 681 782 660L781 645Q733 495 660 199Q652 161 653.50 126.50Q655 92 674 69Q693 46 726 46Q774 47 818.50 97.50Q863 148 886 233Q896 271 910 325Q924 379 932 410Q940 441 951.50 483Q963 525 971.50 550Q980 575 992 604.50Q1004 634 1015.50 651.50Q1027 669 1041.50 686Q1056 703 1073 712.50Q1090 722 1110 726Z"  horiz-adv-x="1071" vert-adv-y="1000"  />

      
      <glyph glyph-name="uni58" unicode="&#x58;" d="M803 697Q813 700 820.50 690Q828 680 827 666Q826 652 817 647Q798 636 778 619Q758 602 736.50 575Q715 548 698 525.50Q681 503 656.50 463.50Q632 424 618.50 401.50Q605 379 577.50 332.50Q550 286 539 267Q584 136 634.50 51.50Q685-33 764-70Q782-78 770.50-104.50Q759-131 740-124Q661-93 607-12Q553 69 499 202Q435 102 372.50 45.50Q310-11 238-11Q170-11 135.50 24.50Q101 60 101 112Q101 184 152 229Q160 237 171.50 233Q183 229 187 220Q191 211 185 202Q157 172 157 120Q157 86 178 63.50Q199 41 247 42Q301 42 356 101Q411 160 477 268Q426 441 444 592Q405 558 347.50 527Q290 496 256.50 472Q223 448 215 417Q207 385 218.50 365.50Q230 346 261 343Q271 342 276.50 330.50Q282 319 276 308.50Q270 298 253 299Q196 303 169 339.50Q142 376 153 426Q162 466 195.50 495.50Q229 525 268.50 541Q308 557 362 586Q416 615 454 651Q462 675 489 673Q511 671 513 654L512 646Q478 520 519 340Q528 355 550 392Q572 429 582 445.50Q592 462 611.50 494Q631 526 643 542.50Q655 559 673.50 584.50Q692 610 706 624.50Q720 639 737 655.50Q754 672 770.50 681.50Q787 691 803 697Z"  horiz-adv-x="768" vert-adv-y="1000"  />

      
      <glyph glyph-name="uni59" unicode="&#x59;" d="M845 236Q848 242 855.50 241.50Q863 241 869.50 234Q876 227 873 220Q827 109 769.50 44.50Q712-20 621-58Q602-133 595-151Q566-230 533-262Q500-294 452-295Q409-296 389-269Q369-242 377-203Q388-151 440-111Q492-71 576-30Q581-14 597.50 48.50Q614 111 624 143Q530-11 410-10Q364-10 338 11Q312 32 306.50 70.50Q301 109 306 150Q311 191 325 245Q372 423 423 605Q381 561 318 526.50Q255 492 216 466.50Q177 441 170 407Q156 339 216 333Q226 332 229 320.50Q232 309 226 298.50Q220 288 208 289Q174 292 150.50 305.50Q127 319 118 337.50Q109 356 105.50 377Q102 398 108 416Q116 453 141.50 479Q167 505 204 523Q241 541 280.50 558.50Q320 576 365.50 608Q411 640 446 683Q450 697 465.50 698Q481 699 492.50 689Q504 679 500 665Q483 609 468.50 559Q454 509 446 478.50Q438 448 415.50 359.50Q393 271 377 209Q370 180 367 153Q364 126 366 99.50Q368 73 381.50 57.50Q395 42 420 42Q479 43 541 103Q603 163 644 254Q657 300 702.50 454.50Q748 609 762 666Q764 675 779 676Q794 677 805.50 668.50Q817 660 813 647Q787 561 725 331Q663 101 637-4Q700 18 756 82.50Q812 147 845 236M563-84Q463-145 441-189Q429-211 435-228.50Q441-246 464-244Q513-239 542-154Q554-119 563-84Z"  horiz-adv-x="847" vert-adv-y="1000"  />

      
      <glyph glyph-name="uni5a" unicode="&#x5a;" d="M626 675Q651 695 666.50 690Q682 685 681 667.50Q680 650 672 637Q613 561 554.50 464.50Q496 368 436.50 261Q377 154 345 102Q359 89 379 66Q399 43 416 25Q433 7 455-14.50Q477-36 499-49Q521-62 547-71.50Q573-81 603.50-79Q634-77 666-64Q673-61 681.50-71.50Q690-82 690.50-94.50Q691-107 677-115Q645-127 613-129.50Q581-132 556-128.50Q531-125 503.50-111Q476-97 457.50-85Q439-73 414.50-50Q390-27 377.50-13Q365 1 342 26.50Q319 52 311 61Q276 22 247.50 7Q219-8 177-9Q121-10 93 16.50Q65 43 67 82Q69 123 102.50 154Q136 185 187 181Q251 176 298 139Q333 185 435.50 364.50Q538 544 587 616Q528 604 415.50 630Q303 656 259 649Q196 639 175 590Q158 550 185 525Q221 491 300 533Q307 537 315 530Q323 523 324 513.50Q325 504 317 497Q263 462 216 461.50Q169 461 142.50 485.50Q116 510 110 547Q103 595 137.50 638Q172 681 247 695Q294 704 350 695Q406 686 445 672.50Q484 659 535.50 656.50Q587 654 626 675M181 137Q146 137 129.50 111.50Q113 86 127 61.50Q141 37 181 39Q232 42 271 99Q228 137 181 137Z"  horiz-adv-x="644" vert-adv-y="1000"  />

      
      <glyph glyph-name="uni5b" unicode="&#x5b;" d="M88-158Q62-158 54.50-149.50Q47-141 54-112L240 630Q248 659 256.50 668Q265 677 288 677L383 677Q397 677 397 658Q393 636 374 633L295 633L104-114L185-114Q200-114 196-136Q191-157 177-158L88-158Z"  horiz-adv-x="420" vert-adv-y="1000"  />

      
      <glyph glyph-name="uni5c" unicode="&#x5c;" d="M448-3Q413 37 342 164Q271 291 192.50 424Q114 557 61 615Q46 630 61 643Q80 661 106 642Q111 638 116 633Q167 574 309 319Q451 64 493 14Q505 0 485-8Q463-16 448-3Z"  horiz-adv-x="552" vert-adv-y="1000"  />

      
      <glyph glyph-name="uni5d" unicode="&#x5d;" d="M316 678Q342 678 349.50 669.50Q357 661 350 632L164-110Q156-139 147.50-148Q139-157 116-157L21-157Q7-157 7-138Q11-116 30-113L109-113L300 634L219 634Q204 634 208 656Q212 678 227 678L316 678Z"  horiz-adv-x="411" vert-adv-y="1000"  />

      
      <glyph glyph-name="uni5e" unicode="&#x5e;" d="M359 489Q365 480 357 467.50Q349 455 338 450.50Q327 446 320 452L226 595L94 457Q83 446 71.50 451.50Q60 457 58 470Q56 483 63 493L202 639Q218 655 236.50 653.50Q255 652 265 635L359 489Z"  horiz-adv-x="464" vert-adv-y="1000"  />

      
      <glyph glyph-name="uni5f" unicode="&#x5f;" d="M115-41Q105-41 101.50-30.50Q98-20 103-10Q108 0 119 0L346-1Q356-1 359.50-11Q363-21 358-31Q353-41 342-41L115-41Z"  horiz-adv-x="451" vert-adv-y="1000"  />

      
      <glyph glyph-name="uni60" unicode="&#x60;" d="M94 844Q130 796 152 763Q161 748 139.50 742.50Q118 737 108 750L48 825Q37 838 59 848Q83 859 94 844Z"  horiz-adv-x="168" vert-adv-y="1000"  />

      
      <glyph glyph-name="uni61" unicode="&#x61;" d="M205 420Q253 429 302.50 417.50Q352 406 388 370Q393 365 386.50 354Q380 343 369 336.50Q358 330 352 336Q284 388 216 372Q176 363 137.50 329.50Q99 296 71 246Q41 193 34.50 134.50Q28 76 51 51Q76 25 121 56.50Q166 88 209.50 163Q253 238 272 325Q274 336 288.50 336.50Q303 337 315.50 329.50Q328 322 326 313Q283 152 277 113Q271 81 275 63.50Q279 46 297 46Q331 46 378 102.50Q425 159 455 238Q458 247 473 238Q485 230 482 221Q388 0 278 0Q244 0 226 33Q208 66 220 121Q195 80 177.50 57Q160 34 130 13Q100-8 66-9Q6-10-18 37.50Q-42 85-28 158Q-11 247 54.50 326Q120 405 205 420Z"  horiz-adv-x="456" vert-adv-y="1000"  />

      
      <glyph glyph-name="uni62" unicode="&#x62;" d="M101-8Q41-7 12.50 30Q-16 67-14 125Q-12 183 1 253Q25 364 68 492.50Q111 621 139 683Q144 690 157.50 690Q171 690 183.50 681.50Q196 673 191 663Q151 576 88 361Q161 427 231 424Q297 422 323 370Q349 318 337 245Q325 172 284 97Q387 85 445 238Q448 247 463 238Q475 230 472 221Q395 31 257 66Q188-9 101-8M108 40Q169 39 212 92Q197 113 210 132.50Q223 152 242 141Q255 169 265 204Q275 239 280.50 279.50Q286 320 270 347.50Q254 375 215 375Q155 376 76 305Q64 273 55.50 233.50Q47 194 43 148Q39 102 55 71Q71 40 108 40Z"  horiz-adv-x="446" vert-adv-y="1000"  />

      
      <glyph glyph-name="uni63" unicode="&#x63;" d="M215 423Q271 422 298 393Q325 364 316.50 325.50Q308 287 271 260Q255 248 229 261Q217 268 221 274Q242 297 250.50 318.50Q259 340 251 356.50Q243 373 216 376Q159 382 107 315.50Q55 249 47 166Q42 114 67 79Q92 44 143 39Q220 31 290 83Q360 135 401 238Q404 242 411 241Q418 240 424.50 233.50Q431 227 428 221Q334-19 132-9Q58-5 18 49Q-22 103-16 174Q-8 267 60 345.50Q128 424 215 423Z"  horiz-adv-x="402" vert-adv-y="1000"  />

      
      <glyph glyph-name="uni64" unicode="&#x64;" d="M390 683Q395 689 408.50 689Q422 689 434.50 681Q447 673 442 663Q376 508 314 277.50Q252 47 310 47Q344 47 386 104.50Q428 162 457 238Q460 242 467 241Q474 240 480 234Q486 228 484 222Q396 2 293 0Q255-1 235.50 33.50Q216 68 225 122Q201 68 160 29.50Q119-9 72-10Q15-12-10.50 37Q-36 86-24.50 158Q-13 230 29 296Q56 337 92.50 364Q129 391 165 401Q201 411 233 411Q265 411 288 402Q303 452 336.50 546.50Q370 641 390 683M275 358Q225 375 169 348.50Q113 322 75 256Q44 202 38 139.50Q32 77 57 51Q89 19 142 67Q195 115 232 210Q253 264 275 358Z"  horiz-adv-x="458" vert-adv-y="1000"  />

      
      <glyph glyph-name="uni65" unicode="&#x65;" d="M224 423Q269 420 295 394Q321 368 321.50 333.50Q322 299 307 264Q276 204 208 182Q140 160 50 187Q38 130 61 89.50Q84 49 135 40Q178 32 224.50 47Q271 62 320.50 111Q370 160 401 238Q404 242 411 241Q418 240 424 234Q430 228 428 221Q404 158 371.50 112Q339 66 308 42.50Q277 19 241.50 6Q206-7 181.50-9.50Q157-12 133-10Q38-3 2 70Q-34 143-3 236Q27 326 91.50 377Q156 428 224 423M212 376Q168 376 121.50 330Q75 284 59 224Q201 193 246 273Q269 308 262 342Q255 376 212 376Z"  horiz-adv-x="402" vert-adv-y="1000"  />

      
      <glyph glyph-name="uni66" unicode="&#x66;" d="M131 609Q162 667 208 683.50Q254 700 283.50 672Q313 644 304 589Q268 370 55 244Q35 177 25 126Q32 125 59.50 122Q87 119 97 118.50Q107 118 131 118Q155 118 166.50 122Q178 126 197.50 134.50Q217 143 229.50 156Q242 169 256 190Q270 211 281 238Q284 242 290.50 241Q297 240 303.50 234Q310 228 308 222Q295 185 278 158.50Q261 132 239.50 117.50Q218 103 199.50 95Q181 87 153 86.50Q125 86 107.50 87Q90 88 59 92Q97 59 111 4.50Q125-50 118.50-102.50Q112-155 93-204Q57-291-7-292Q-42-293-61-268Q-80-243-78-196Q-70-28-22 169Q51 461 131 609M181 590Q131 498 71 300Q217 430 249 589Q257 630 235 635Q212 641 184 596Q183 593 181 590M16 81Q-20-93-22-184Q-23-242 2-240Q25-238 44-192Q47-185 49-178Q111 11 16 81Z"  horiz-adv-x="282" vert-adv-y="1000"  />

      
      <glyph glyph-name="uni67" unicode="&#x67;" d="M224 423Q317 432 388 369Q392 363 384.50 352Q377 341 366.50 336Q356 331 348 338Q292 382 233 374Q187 370 144.50 336Q102 302 71 247Q41 193 34 135.50Q27 78 50 52Q80 22 131.50 65.50Q183 109 226 198Q255 258 273 328Q277 336 289.50 336Q302 336 314.50 329Q327 322 325 314Q271 106 240-2Q303 23 358 86Q413 149 446 238Q449 242 456 241Q463 240 469 234Q475 228 473 222Q429 113 372 49Q315-15 225-57Q207-132 187-181Q167-230 144.50-253.50Q122-277 102.50-285.50Q83-294 58-295Q18-297-4-275Q-26-253-22-211Q-19-182-1-155.50Q17-129 49.50-105.50Q82-82 109-66.50Q136-51 177-30Q192 19 226 135Q152-7 66-9Q8-11-17 35Q-42 81-29.50 150.50Q-17 220 25 287Q102 411 224 423M165-84Q70-140 46-184Q24-224 47-240Q70-254 101-227Q131-201 147-147L165-84Z"  horiz-adv-x="447" vert-adv-y="1000"  />

      
      <glyph glyph-name="uni68" unicode="&#x68;" d="M143 683Q148 690 161.50 690Q175 690 187.50 681.50Q200 673 195 663Q181 634 163 581.50Q145 529 132.50 489Q120 449 98.50 377.50Q77 306 71 286Q159 423 242 424Q296 425 314.50 384Q333 343 316 278Q264 86 263 59Q264 37 280 37Q315 38 360.50 97Q406 156 437 238Q440 243 447 242Q454 241 460.50 234.50Q467 228 464 221Q369-9 271-10Q225-11 211 15.50Q197 42 205 94Q207 109 215.50 142Q224 175 236 219Q248 263 254 288Q274 370 227 370Q192 370 143 322Q94 274 58 211Q33 120 12 14Q10 5-7.50 0.50Q-25-4-40 1.50Q-55 7-51 21Q-12 207 41.50 391Q95 575 143 683Z"  horiz-adv-x="438" vert-adv-y="1000"  />

      
      <glyph glyph-name="uni69" unicode="&#x69;" d="M125.50 496Q125.50 496 119.75 491Q114 486 98 486Q82 486 71.50 496Q61 506 62 524Q63 542 74.50 552Q86 562 102 562Q118 562 128.50 552Q139 542 138 524Q137 506 125.50 496M22-10Q-60-9-34 104Q-15 184 46 403Q49 415 63.50 416Q78 417 90.50 410.50Q103 404 101 396Q46 201 24 111Q14 80 15.50 58Q17 36 37 37Q76 38 124 100.50Q172 163 200 237Q203 242 210.50 241.50Q218 241 224 234Q230 227 227 220Q211 180 191.50 143.50Q172 107 146 70Q120 33 87.50 11.50Q55-10 22-10Z"  horiz-adv-x="201" vert-adv-y="1000"  />

      
      <glyph glyph-name="uni6a" unicode="&#x6a;" d="M120.50 496Q120.50 496 114.75 491Q109 486 93 486Q77 486 66.50 496Q56 506 57 524Q58 542 69.50 552Q81 562 97 562Q113 562 123.50 552Q134 542 133 524Q132 506 120.50 496M-195-295Q-235-297-257-275Q-279-253-275-211Q-272-182-254-155.50Q-236-129-203.50-105.50Q-171-82-144-66.50Q-117-51-76-30Q-50 46 41 406Q44 416 58.50 416Q73 416 84.50 409.50Q96 403 94 396Q-4 34-13-2Q51 23 106 86Q161 149 194 238Q197 242 204 241Q211 240 217 234Q223 228 221 222Q177 114 119.50 49.50Q62-15-28-57Q-46-132-66-181Q-86-230-108.50-253.50Q-131-277-150.50-285.50Q-170-294-195-295M-187-244Q-165-242-142-217.50Q-119-193-106-147L-88-84Q-183-140-207-184Q-221-212-214-229Q-207-246-187-244Z"  horiz-adv-x="195" vert-adv-y="1000"  />

      
      <glyph glyph-name="uni6b" unicode="&#x6b;" d="M396 238Q399 242 406 241.50Q413 241 419.50 234.50Q426 228 423 221Q383 124 324 57Q265-10 198-10Q91-10 95 189Q139 207 173.50 228Q208 249 227.50 269Q247 289 257.50 308Q268 327 267 341.50Q266 356 255 364Q231 383 185.50 362.50Q140 342 96.50 291Q53 240 38 181Q24 127 12.50 73.50Q1 20 0 18Q-4 0-32-1Q-57-1-58 15Q-58 18-57 22Q-33 125-5.50 228.50Q22 332 40 393.50Q58 455 87 551.50Q116 648 126 683Q130 690 143 690Q156 690 168.50 682Q181 674 178 663Q171 638 126 493Q81 348 70 305Q96 349 131.50 378Q167 407 200 416Q233 425 261 421.50Q289 418 303 402Q321 381 322 351Q323 321 306.50 288.50Q290 256 248.50 223.50Q207 191 146 168Q143 111 158.50 75Q174 39 209 39Q255 39 306.50 91.50Q358 144 396 238Z"  horiz-adv-x="397" vert-adv-y="1000"  />

      
      <glyph glyph-name="uni6c" unicode="&#x6c;" d="M172 667Q223 708 265 682Q308 656 300 582Q296 546 278 505Q207 341 56 246Q15 48 91 39Q126 35 159 55.50Q192 76 217 112.50Q242 149 257.50 178.50Q273 208 285 238Q288 242 295.50 241.50Q303 241 309 234Q315 227 312 220Q286 163 266.50 127Q247 91 217.50 53Q188 15 151.50-0.50Q115-16 71-10Q29-4 7.50 26Q-14 56-15.50 107Q-17 158-9 213Q-1 268 18 338Q48 454 88.50 543.50Q129 633 172 667M229 638Q207 640 183.50 603.50Q160 567 132 496Q95 405 68 300Q160 381 205 475Q237 545 244 589.50Q251 634 229 638Z"  horiz-adv-x="286" vert-adv-y="1000"  />

      
      <glyph glyph-name="uni6d" unicode="&#x6d;" d="M457-10Q377-10 390 83Q393 105 401.50 140Q410 175 422 220Q434 265 439 286Q454 346 446 361Q440 372 425 372Q387 372 331 308Q275 244 258 179Q251 152 237.50 93Q224 34 218 15Q213-1 182 0Q156 2 158 16Q181 101 226 287Q246 370 206 371Q175 372 128.50 317.50Q82 263 49 191Q24 104 4 11Q2 2-15-0.50Q-32-3-46.50 4Q-61 11-57 25Q2 239 40 405Q42 415 58 417Q74 419 87.50 412Q101 405 98 393Q93 374 84.50 340.50Q76 307 69 285Q98 343 139 384Q180 425 226 424Q268 423 285.50 386.50Q303 350 288 297Q364 425 441 424Q489 423 503.50 391Q518 359 505 294Q502 277 491 241Q480 205 470 172Q460 139 453 107Q446 75 448.50 56Q451 37 465 37Q502 38 548 100.50Q594 163 622 238Q625 242 632 241.50Q639 241 645.50 234.50Q652 228 649 221Q612 130 561 60Q510-10 457-10Z"  horiz-adv-x="623" vert-adv-y="1000"  />

      
      <glyph glyph-name="uni6e" unicode="&#x6e;" d="M250 424Q304 423 321.50 380.50Q339 338 321 276Q315 251 299 200Q283 149 277 123Q263 61 270 47Q274 37 286 37Q319 37 364.50 96.50Q410 156 442 238Q445 242 452 241.50Q459 241 465.50 234.50Q472 228 469 221Q452 180 433 143.50Q414 107 389 70Q364 33 334.50 11.50Q305-10 276-10Q203-10 209 71Q210 86 258 287Q278 370 235 371Q199 372 146.50 324.50Q94 277 57 215Q26 111 5 12Q3 3-14 0Q-31-3-46 3Q-61 9-57 23Q17 308 40 403Q43 415 58.50 417.50Q74 420 87.50 412.50Q101 405 98 393Q82 329 70 287Q105 340 153.50 382.50Q202 425 250 424Z"  horiz-adv-x="443" vert-adv-y="1000"  />

      
      <glyph glyph-name="uni6f" unicode="&#x6f;" d="M218 424Q278 426 310.50 394Q343 362 346 312Q349 262 334 204.50Q319 147 289 97Q336 93 376 121.50Q416 150 451 238Q454 242 461 241Q468 240 474.50 234Q481 228 478 221Q400 26 263 67Q198-9 108-9Q44-9 6.50 36.50Q-31 82-16 179Q-1 278 66 349Q133 420 218 424M214 375Q156 371 106 305.50Q56 240 47 174Q39 118 55.50 79Q72 40 118 40Q173 40 218 93Q208 108 210.50 120.50Q213 133 224.50 139.50Q236 146 247 140Q267 180 277.50 221.50Q288 263 287.50 298.50Q287 334 268.50 355.50Q250 377 214 375Z"  horiz-adv-x="452" vert-adv-y="1000"  />

      
      <glyph glyph-name="uni70" unicode="&#x70;" d="M228 423Q277 423 304.50 397Q332 371 337 331.50Q342 292 335.50 247Q329 202 314.50 163Q300 124 284 99Q336 87 376.50 118Q417 149 452 238Q455 242 462 241Q469 240 475.50 233.50Q482 227 479 221Q398 18 259 70Q213 18 159.50 0Q106-18 65-4.50Q24 9 2 44Q-9-7-35-119Q-61-231-70-279Q-71-287-84.50-288.50Q-98-290-110-285.50Q-122-281-121-274Q-46 60 37 404Q39 415 55 417.50Q71 420 84 412Q97 404 93 390Q86 365 82 355Q110 386 151.50 404.50Q193 423 228 423M264.50 352.50Q264.50 352.50 255.75 364.75Q247 377 210 376Q173 375 131.50 349Q90 323 67 293Q47 219 15 85Q45 37 108.50 39Q172 41 212 93Q191 109 209 130Q223 149 238 139L241 137Q259 172 269.50 212.50Q280 253 281 290.50Q282 328 264.50 352.50Z"  horiz-adv-x="453" vert-adv-y="1000"  />

      
      <glyph glyph-name="uni71" unicode="&#x71;" d="M242 425Q320 428 388 369Q392 365 385.50 354.50Q379 344 368.50 337Q358 330 352 335Q300 376 244 376Q178 375 124 318Q70 261 47 192Q13 90 47 54Q76 24 129 64Q168 95 205 156Q251 232 271 326Q273 335 287 335.50Q301 336 313.50 329Q326 322 324 313Q311 261 279 135.50Q247 10 232-54Q248-34 302.50 19Q357 72 397.50 124.50Q438 177 459 238Q462 242 469 241.50Q476 241 482.50 234.50Q489 228 486 221Q466 171 439.50 127.50Q413 84 397 65Q381 46 352 15Q345 7 320.50-17Q296-41 283-55.50Q270-70 251.50-95.50Q233-121 220.50-149.50Q208-178 201-212L193-275Q192-285 176.50-288Q161-291 147.50-286Q134-281 136-271Q138-259 150.50-190Q163-121 172-74Q181-27 195.50 34.50Q210 96 223 132Q154-6 66-9Q8-11-16.50 33Q-41 77-30 146Q-13 255 67 338.50Q147 422 242 425Z"  horiz-adv-x="460" vert-adv-y="1000"  />

      
      <glyph glyph-name="uni72" unicode="&#x72;" d="M8 180Q5 177-2 178.50Q-9 180-15.50 185.50Q-22 191-19 195Q26 298 59 430Q21 480 43 512Q58 534 81 526Q112 515 105 463Q104 456 102 449Q110 439 123.50 424.50Q137 410 148 398Q159 386 171 372Q183 358 190.50 346Q198 334 203.50 321.50Q209 309 207.50 298Q206 287 199 278Q112 171 114 99Q116 41 164 40Q209 38 261 89Q313 140 352 238Q355 242 362 241Q369 240 375 233.50Q381 227 379 221Q283-16 147-9Q100-7 75.50 23.50Q51 54 50 100Q49 173 135 292Q141 301 142 311Q143 321 139.50 329.50Q136 338 129 349Q122 360 115 368Q108 376 99 386.50Q90 397 85 403Q50 271 8 180Z"  horiz-adv-x="353" vert-adv-y="1000"  />

      
      <glyph glyph-name="uni73" unicode="&#x73;" d="M114-9Q59-8 32 36Q5 80 29 147Q33 158 44 160Q55 162 64 156.50Q73 151 71 144Q57 95 73.50 67.50Q90 40 123 41Q145 42 163.50 53.50Q182 65 191 81Q171 97 179 123Q187 149 207 144Q211 176 175.50 267.50Q140 359 142 411Q103 372 76.50 324.50Q50 277 8 181Q5 177-1.50 178Q-8 179-14.50 184.50Q-21 190-19 195Q59 387 132 447Q168 477 191 461Q209 448 195 427Q193 423 190 420Q192 365 215.50 304.50Q239 244 253.50 193.50Q268 143 254 95Q344 95 400 238Q403 242 410 241Q417 240 423.50 233.50Q430 227 427 221Q358 49 239 60Q220 27 185.50 8.50Q151-10 114-9Z"  horiz-adv-x="401" vert-adv-y="1000"  />

      
      <glyph glyph-name="uni74" unicode="&#x74;" d="M79-10Q42-11 19.50 6.50Q-3 24-10.50 53.50Q-18 83-17.50 121.50Q-17 160-9 202.50Q-1 245 9.50 288Q20 331 30 368Q32 372 32 374L-4 374Q-16 382-14 396.50Q-12 411-2 418L44 418Q82 541 127 650Q132 657 145.50 657Q159 657 171 649.50Q183 642 180 634Q151 562 105 418L210 418Q221 412 217 393.50Q213 375 204 374L93 374Q65 274 53 217Q15 40 94 40Q148 40 200 104Q252 168 278 238Q281 242 288 241Q295 240 301 233.50Q307 227 304 220Q264 115 206 53Q148-9 79-10Z"  horiz-adv-x="278" vert-adv-y="1000"  />

      
      <glyph glyph-name="uni75" unicode="&#x75;" d="M286 403Q289 413 305 414.50Q321 416 334 409Q347 402 343 391Q330 353 315.50 302Q301 251 287.50 190.50Q274 130 275.50 88.50Q277 47 298 46Q332 45 375.50 102Q419 159 449 238Q452 243 459 242Q466 241 472.50 234.50Q479 228 476 221Q429 117 399 76Q343 0 281 0Q240 0 226.50 39Q213 78 224 121Q145-15 42-8Q6-6-15.50 23Q-37 52-30 102Q-20 168 11 280.50Q42 393 43 399Q46 411 61 413.50Q76 416 89 410Q102 404 100 394Q98 388 72.50 289.50Q47 191 35 135Q15 41 67 40Q104 39 150.50 78.50Q197 118 224 191Q240 234 286 403Z"  horiz-adv-x="450" vert-adv-y="1000"  />

      
      <glyph glyph-name="uni76" unicode="&#x76;" d="M53 399Q59 417 88 413Q112 409 111 396Q110 395 110 394Q38 193 31 117Q27 47 63 42Q111 37 161 95Q137 118 155 138Q170 155 187 145Q191 143 194 139Q267 245 279 399Q280 411 296 415Q312 419 326.50 412Q341 405 339 389Q311 199 234 99Q287 87 340.50 119Q394 151 427 239Q429 243 436 242Q443 241 449.50 234.50Q456 228 453 222Q431 166 399.50 128.50Q368 91 336.50 77Q305 63 271 60Q237 57 209 69Q131-16 42-8Q6-5-15 23.50Q-36 52-30 102Q-25 140-14.50 184Q-4 228 5.50 257Q15 286 31 332.50Q47 379 53 399Z"  horiz-adv-x="427" vert-adv-y="1000"  />

      
      <glyph glyph-name="uni77" unicode="&#x77;" d="M285-9Q243-8 225.50 21Q208 50 212 96Q138-14 40-8Q4-6-17 22.50Q-38 51-32 102Q-27 140-16.50 184Q-6 228 3.50 257Q13 286 29 332.50Q45 379 51 399Q57 417 86 413Q110 409 109 396Q108 395 108 394Q56 251 33 135Q14 45 65 40Q102 37 150.50 81Q199 125 228 206Q238 242 260.50 308Q283 374 289 397Q292 408 307.50 411.50Q323 415 336 410Q349 405 347 394Q341 376 324 327.50Q307 279 295 236.50Q283 194 272 139Q262 84 268.50 63Q275 42 300 42Q355 42 395 95Q372 119 389 138Q403 154 419 143Q422 141 425 138Q451 163 481 250.50Q511 338 511 400Q511 409 526.50 413.50Q542 418 557 412Q572 406 572 392Q569 320 534.50 226.50Q500 133 466 99Q519 86 573 118Q627 150 661 238Q664 242 671 241Q678 240 684 233.50Q690 227 687 220Q664 163 632 126Q600 89 568.50 75.50Q537 62 503 59.50Q469 57 441 70Q371-10 285-9Z"  horiz-adv-x="661" vert-adv-y="1000"  />

      
      <glyph glyph-name="uni78" unicode="&#x78;" d="M464 237Q467 242 474 241Q481 240 487.50 234Q494 228 491 221Q457 134 407.50 69.50Q358 5 303-6Q217-24 190 78Q179 124 174 139L61 0Q50-12 17-9Q-2-7-1 0Q0 3 2 5L159 198L129 316Q116 366 104 367Q98 367 90 355Q79 338 67.50 314Q56 290 38 248.50Q20 207 8 180Q6 178-1 179.50Q-8 181-14.50 186Q-21 191-19 196Q-6 223 12.50 271.50Q31 320 43 348Q55 376 74.50 399.50Q94 423 115 424Q154 425 168.50 399Q183 373 211 262L328 406Q340 421 373 413Q388 410 388 403L387 400L226 203Q230 188 236.50 158Q243 128 247 113Q257 75 268.50 57Q280 39 301 42Q344 50 387 100.50Q430 151 464 237Z"  horiz-adv-x="465" vert-adv-y="1000"  />

      
      <glyph glyph-name="uni79" unicode="&#x79;" d="M49-295Q9-297-13-275Q-35-253-31-211Q-28-182-10-155.50Q8-129 40.50-105.50Q73-82 100-66.50Q127-51 168-30Q174-13 212 123Q169 50 116.50 16.50Q64-17 19-7Q-56 9-37 105Q-28 152 2 251.50Q32 351 37 399Q38 409 53 413Q68 417 81.50 411.50Q95 406 93 394Q89 367 78 322Q67 277 51.50 218Q36 159 28 124Q18 89 22 66.50Q26 44 49 40Q84 33 130.50 76.50Q177 120 213 196Q251 275 279 403Q282 414 297.50 415Q313 416 326 409Q339 402 336 392Q235 13 231-2Q293 26 350 87Q407 148 438 238Q441 246 455 238Q468 231 465 222Q423 114 364 51Q305-12 216-57Q198-132 178-181Q158-230 135.50-253.50Q113-277 93.50-285.50Q74-294 49-295M65-243Q107-231 138-147L156-84Q61-140 37-184Q21-215 31-232Q41-249 65-243Z"  horiz-adv-x="439" vert-adv-y="1000"  />

      
      <glyph glyph-name="uni7a" unicode="&#x7a;" d="M124 453Q144 417 197.50 398Q251 379 305 389Q329 398 346 393Q363 388 364 375Q365 362 352 347Q327 315 285.50 255Q244 195 207.50 148.50Q171 102 131 62Q163 69 201.50 54Q240 39 268 40Q314 42 366 95.50Q418 149 452 237Q455 242 462 241Q469 240 475.50 233.50Q482 227 479 220Q440 121 382 56.50Q324-8 266-9Q229-10 185.50 7.50Q142 25 102 18Q65-19 31-5Q6 4 12 28Q18 55 67 73Q153 161 278 342Q228 337 180 353Q132 369 104 409Q77 331 7 181Q4 177-2.50 178Q-9 179-15 184.50Q-21 190-20 194Q44 344 76 444Q44 486 65 516Q80 537 102 529Q133 517 124 453Z"  horiz-adv-x="453" vert-adv-y="1000"  />

      
      <glyph glyph-name="uni7b" unicode="&#x7b;" d="M180-149Q146-163 111-152.50Q76-142 63-112Q50-81 53-31.50Q56 18 73 73Q80 94 96 134.50Q112 175 115 193Q118 212 104 223Q90 234 65 236Q55 236 52 247Q49 258 55 269Q61 280 72 280Q139 280 156 327Q162 343 182.50 455Q203 567 222 601Q250 652 287.50 666.50Q325 681 373 675Q383 674 384 663Q385 652 378.50 642Q372 632 363 633Q304 639 276 583Q259 550 238 439.50Q217 329 208 308Q188 257 139 252Q173 226 167 180Q164 158 146.50 118Q129 78 123 58Q91-43 116-95Q131-125 182-111Q194-108 196-122Q198-142 180-149Z"  horiz-adv-x="401" vert-adv-y="1000"  />

      
      <glyph glyph-name="uni7c" unicode="&#x7c;" d="M90-268Q86-283 71-287Q56-291 44-283Q32-275 36-260L274 680Q280 703 308 700Q330 697 331 684Q331 682 331 680L90-268Z"  horiz-adv-x="400" vert-adv-y="1000"  />

      
      <glyph glyph-name="uni7d" unicode="&#x7d;" d="M65-154Q55-153 54-142Q53-131 59.50-121Q66-111 75-112Q134-118 162-62Q179-29 200 81.50Q221 192 230 213Q250 264 299 269Q265 295 271 341Q274 363 291.50 403Q309 443 315 463Q347 564 322 616Q307 646 256 632Q244 629 242 643Q240 663 258 670Q292 684 327 673.50Q362 663 375 633Q388 602 385 552.50Q382 503 365 448Q358 427 342 386.50Q326 346 323 328Q320 309 334 298Q348 287 373 285Q383 285 386 274Q389 263 383 252Q377 241 366 241Q299 241 282 194Q276 178 255.50 66Q235-46 216-80Q188-131 150.50-145.50Q113-160 65-154Z"  horiz-adv-x="456" vert-adv-y="1000"  />

      
      <glyph glyph-name="uni7e" unicode="&#x7e;" d="M306 261Q273 260 238.50 283Q204 306 186 306Q155 307 128 270Q122 261 109.50 269.50Q97 278 101 289Q127 351 188 352Q221 353 254 330Q287 307 307 307Q340 308 366 343Q372 352 384.50 343.50Q397 335 393 324Q367 262 306 261Z"  horiz-adv-x="484" vert-adv-y="1000"  />

      
      <glyph glyph-name="unia1" unicode="&#xa1;" d="M202.50 398Q202.50 398 208.25 403.50Q214 409 229 409Q244 409 254 397.50Q264 386 263 371Q262 356 250.50 345Q239 334 223 334Q207 334 197.50 345Q188 356 189 372Q191 387 202.50 398M219 240Q197 166 149.50-30.50Q102-227 92-263Q83-294 57-288Q37-284 34-268Q33-263 34-259Q65-162 115 42.50Q165 247 165 249Q172 264 186.50 266.50Q201 269 211.50 260Q222 251 219 240Z"  horiz-adv-x="336" vert-adv-y="1000"  />

      
      <glyph glyph-name="unia2" unicode="&#xa2;" d="M377 189Q313 106 215 101L191-2Q188-15 165-15Q144-16 145-2Q145 0 146 2Q150 20 158.50 53Q167 86 171 104Q107 115 77.50 166Q48 217 55 284Q64 379 127 462Q190 545 277 553Q287 598 296 630Q299 641 311.50 644Q324 647 335 642.50Q346 638 345 631Q341 617 334 591Q327 565 324 551Q367 542 386.50 510Q406 478 399.50 441.50Q393 405 367 380Q354 367 337.50 378Q321 389 329 403Q350 437 345.50 465Q341 493 312 503Q287 402 226 150Q301 157 350 218Q355 224 364 219.50Q373 215 377.50 206Q382 197 377 189M113 276Q104 169 183 153Q239 396 265 502Q207 492 164 426Q121 360 113 276Z"  horiz-adv-x="464" vert-adv-y="1000"  />

      
      <glyph glyph-name="unia3" unicode="&#xa3;" d="M90-13Q80-22 68.50-15Q57-8 55 4Q53 16 61 24Q155 95 165 301L108 301Q98 301 94 312.50Q90 324 95 335Q100 346 112 346L166 346Q167 387 169.50 413.50Q172 440 178 479.50Q184 519 196.50 545Q209 571 229 596.50Q249 622 281.50 634.50Q314 647 356 647Q418 647 453 599.50Q488 552 468 475Q462 456 437 457Q420 459 421 469Q437 531 416.50 563.50Q396 596 354 596Q328 596 307 586.50Q286 577 272.50 565Q259 553 249 529Q239 505 234 488.50Q229 472 225.50 440Q222 408 221 393Q220 378 219 346L307 346Q316 346 318.50 335Q321 324 315.50 312.50Q310 301 300 301L218 301Q208 159 163 73Q194 77 235 63Q241 61 266.50 52.50Q292 44 300.50 42Q309 40 330.50 38Q352 36 364.50 40.50Q377 45 394.50 56.50Q412 68 427 87Q433 94 445 90.50Q457 87 462 77.50Q467 68 460 56Q425 11 384-3Q343-17 312.50-9Q282-1 240 13Q198 27 175 28Q155 29 140.50 23.50Q126 18 118 12Q110 6 90-13Z"  horiz-adv-x="529" vert-adv-y="1000"  />

      
      <glyph glyph-name="unia4" unicode="&#xa4;" d="M162 564L195 516Q249 549 310.50 547Q372 545 416 509Q446 540 464 563Q483 586 504 572Q520 559 511 545L444 470Q472 412 457 336.50Q442 261 394 208Q440 147 457 121Q463 113 456 102.50Q449 92 439 88.50Q429 85 423 91Q412 106 389.50 136Q367 166 359 177Q314 140 251.50 133.50Q189 127 144 154Q93 96 88 89Q83 83 72.50 90Q62 97 57 106.50Q52 116 57 123L109 184Q59 248 75 339Q91 430 157 488L118 548Q107 562 123 574Q142 588 160 567Q161 565 162 564M308 495Q237 497 189.50 450.50Q142 404 130 336Q119 268 147 227.50Q175 187 230 186Q300 185 347.50 231Q395 277 407 345Q419 412 391 453Q363 494 308 495Z"  horiz-adv-x="578" vert-adv-y="1000"  />

      
      <glyph glyph-name="unia5" unicode="&#xa5;" d="M429 637Q437 647 449 644.50Q461 642 470 631Q479 620 474 611Q368 436 260 303L330 304Q340 304 344 294Q348 284 343 273.50Q338 263 327 263Q300 262 233 262L221 215Q255 214 310 216Q325 217 324 199Q323 179 307 175Q306 175 304 175Q277 173 210 173Q202 143 190 90.50Q178 38 170 7Q158-19 134-13Q115-6 119 11Q134 68 158 174Q145 174 118 175Q91 176 78 176Q68 176 65 186.50Q62 197 67.50 207Q73 217 84 217Q142 215 166 215L176 262L86 265Q71 266 74 284Q77 305 94 306Q95 306 97 306Q108 305 121 304.50Q134 304 150 303.50Q166 303 175 303Q124 467 97 613Q96 629 108.50 637.50Q121 646 135.50 642Q150 638 152 623Q181 453 223 330Q339 473 429 637Z"  horiz-adv-x="500" vert-adv-y="1000"  />

      
      <glyph glyph-name="unia6" unicode="&#xa6;" d="M210 293Q206 278 191 274Q176 270 164 278Q152 286 156 301L251 681Q256 702 282 700Q307 699 308 683Q309 680 308 677L210 293M69-268Q63-289 37-287Q14-285 13-269L13-263L110 120Q114 135 129 139Q144 143 156 135Q168 127 164 112L69-268Z"  horiz-adv-x="354" vert-adv-y="1000"  />

      
      <glyph glyph-name="unia7" unicode="&#xa7;" d="M275 699Q325 697 362 668Q399 639 409 590Q411 580 400 573.50Q389 567 376.50 567.50Q364 568 363 576Q358 602 340.50 620Q323 638 300.50 644Q278 650 256 648Q234 646 218 631Q202 616 200 593Q198 567 214.50 542.50Q231 518 256.50 496.50Q282 475 307.50 452Q333 429 350.50 396Q368 363 367 325Q364 244 289 198Q309 163 309.50 125Q310 87 293 56Q276 25 239.50 5.50Q203-14 155-14Q97-13 58.50 21Q20 55 21 108Q21 115 32.50 119.50Q44 124 56.50 121Q69 118 71 107Q86 35 162 35Q210 35 229.50 57.50Q249 80 251 121Q252 149 235.50 176Q219 203 195.50 226.50Q172 250 148 274.50Q124 299 108.50 332.50Q93 366 95 403Q97 439 119 466.50Q141 494 178 505Q140 548 144 602Q148 646 184 673Q220 700 275 699M216 466Q191 465 170 447Q149 429 148 397Q147 368 162 343.50Q177 319 215 282Q253 245 261 236Q312 266 312 336Q312 363 292.50 391.50Q273 420 259 432Q245 444 216 466Z"  horiz-adv-x="475" vert-adv-y="1000"  />

      
      <glyph glyph-name="unia8" unicode="&#xa8;" d="M97 744Q82 744 71.50 755Q61 766 61 781Q61 795 71 805.50Q81 816 97 817Q111 817 121.50 806Q132 795 132 780Q131 766 120.50 755Q110 744 97 744M221 744Q207 744 197 755Q187 766 187 781Q187 795 197 805.50Q207 816 221 817Q237 817 247.50 806Q258 795 258 780Q257 765 246.50 754.50Q236 744 221 744Z"  horiz-adv-x="314" vert-adv-y="1000"  />

      
      <glyph glyph-name="unia9" unicode="&#xa9;" d="M314-161Q183-163 110-68Q37 27 58 178Q79 326 182 432Q285 538 444 541Q577 543 652 448.50Q727 354 706 202Q696 131 666 67.50Q636 4 588-47.50Q540-99 469-129.50Q398-160 314-161M318-109Q458-108 544-18.50Q630 71 650 203Q670 333 611.50 411Q553 489 445 490Q310 491 225 400.50Q140 310 119 177Q99 47 156-31.50Q213-110 318-109M354 16Q288 16 258.50 61.50Q229 107 236 170Q242 250 302 316.50Q362 383 437 382Q484 382 506 354Q528 326 520 291Q512 256 481 233Q469 224 455 232Q441 240 447 252Q473 280 471 308.50Q469 337 435 338Q382 340 339 290Q296 240 289 163Q285 117 302 87Q319 57 360 57Q414 57 461 96Q466 100 473.50 95Q481 90 484 82Q487 74 482 68Q425 16 354 16Z"  horiz-adv-x="774" vert-adv-y="1000"  />

      
      <glyph glyph-name="uniab" unicode="&#xab;" d="M193 146Q180 160 79 261Q64 275 65 294.50Q66 314 85 325Q195 390 244 425Q254 432 267 425Q280 418 283 406.50Q286 395 274 385Q136 298 124 291Q170 245 235 175Q241 168 233.50 157Q226 146 214.50 142.50Q203 139 193 146M385 146Q372 160 271 261Q256 275 257 294.50Q258 314 277 325Q387 390 436 425Q446 432 459 425Q472 418 475 406.50Q478 395 466 385Q328 298 316 291Q362 245 427 175Q433 168 425.50 157Q418 146 406.50 142.50Q395 139 385 146Z"  horiz-adv-x="541" vert-adv-y="1000"  />

      
      <glyph glyph-name="uniac" unicode="&#xac;" d="M365 188Q363 179 350 176.50Q337 174 326.50 178.50Q316 183 318 192L338 266L113 266Q103 266 100.50 277.50Q98 289 104 300.50Q110 312 121 312L379 312Q388 312 392 303.50Q396 295 393 285L365 188Z"  horiz-adv-x="484" vert-adv-y="1000"  />

      
      <glyph glyph-name="uniae" unicode="&#xae;" d="M311-161Q181-163 109-68.50Q37 26 58 178Q79 325 186 431.50Q293 538 453 541Q584 543 655.50 448.50Q727 354 706 202Q696 132 664 67.50Q632 3 582.50-47.50Q533-98 462.50-129Q392-160 311-161M315-109Q450-108 540-17.50Q630 73 650 203Q670 333 615 411Q560 489 454 490Q363 490 289.50 446Q216 402 174 332Q132 262 119 177Q99 47 154.50-31.50Q210-110 315-109M412 18Q391 44 382.50 104Q374 164 371 172Q360 205 325 202Q278 38 272 26Q267 20 256 19.50Q245 19 235.50 25.50Q226 32 229 41Q250 96 271.50 179Q293 262 311 308Q331 358 369 386Q407 414 454 411Q501 408 518.50 377Q536 346 523 310Q511 277 469.50 248.50Q428 220 390 214Q415 205 423 173.50Q431 142 436 102Q441 62 458 40Q471 25 445.50 15.50Q420 6 412 18M336 238Q387 242 426 268Q465 294 475 324Q482 343 474.50 355Q467 367 446 368Q406 370 378.50 333Q351 296 336 238Z"  horiz-adv-x="774" vert-adv-y="1000"  />

      
      <glyph glyph-name="uniaf" unicode="&#xaf;" d="M63 761Q53 761 49 771Q45 781 50 791Q55 801 66 801Q141 800 242 800Q252 800 255.50 790Q259 780 254.50 770Q250 760 239 760Q208 760 155 760.50Q102 761 63 761Z"  horiz-adv-x="282" vert-adv-y="1000"  />

      
      <glyph glyph-name="unib0" unicode="&#xb0;" d="M222 654Q279 654 315.50 613Q352 572 345 513Q337 450 291 411Q245 372 180 372Q120 372 83.50 413Q47 454 56 513Q65 575 109.50 614.50Q154 654 222 654M212 606Q173 606 145.50 580.50Q118 555 113 514Q106 476 128 448.50Q150 421 187 421Q227 421 256 448Q285 475 289 514Q293 553 270.50 579.50Q248 606 212 606Z"  horiz-adv-x="410" vert-adv-y="1000"  />

      
      <glyph glyph-name="unib1" unicode="&#xb1;" d="M383 340Q399 340 397 318Q391 297 375 294L274 294L247 200Q244 191 231 189.50Q218 188 207 193.50Q196 199 198 208L222 294L117 294Q107 294 104.50 306Q102 318 108 329.50Q114 341 125 341L235 340L267 451Q271 464 284.50 466Q298 468 308.50 460.50Q319 453 316 442L287 340L383 340M333 152Q349 152 347 130Q341 109 325 106L67 106Q57 106 54.50 117.50Q52 129 58 140.50Q64 152 75 152L333 152Z"  horiz-adv-x="461" vert-adv-y="1000"  />

      
      <glyph glyph-name="unib2" unicode="&#xb2;" d="M58 371Q46 371 44.50 388Q43 405 54 411Q91 432 127.50 472Q164 512 172 551Q178 578 168 594Q158 610 142 610Q128 612 115 599Q102 586 100 565Q100 559 89.50 557Q79 555 69 559.50Q59 564 60 573Q61 610 85.50 630Q110 650 147 649Q183 648 205.50 622.50Q228 597 221 551Q214 512 183.50 473.50Q153 435 120 410L206 411Q220 411 219 391.50Q218 372 206 372L58 371Z"  horiz-adv-x="268" vert-adv-y="1000"  />

      
      <glyph glyph-name="unib3" unicode="&#xb3;" d="M147 648Q187 649 208 631Q229 613 228 584Q227 536 172 520Q194 516 208.50 494.50Q223 473 217 443Q211 409 182.50 390.50Q154 372 120 373Q85 373 63 394Q41 415 46 455Q47 464 64 464Q81 464 81 454Q81 412 122 412Q165 412 171 452Q174 476 159.50 489Q145 502 121 502Q115 502 113.50 510.50Q112 519 116 527.50Q120 536 127 536Q183 536 183 581Q183 609 147 609Q132 609 119.50 599.50Q107 590 103 575Q101 568 91 566.50Q81 565 72.50 570.50Q64 576 66 585Q71 613 94.50 629.50Q118 646 147 648Z"  horiz-adv-x="273" vert-adv-y="1000"  />

      
      <glyph glyph-name="unib4" unicode="&#xb4;" d="M92 844Q103 859 127 848Q149 838 138 825L78 750Q67 736 45 743Q25 749 34 763Q56 796 92 844Z"  horiz-adv-x="170" vert-adv-y="1000"  />

      
      <glyph glyph-name="unib6" unicode="&#xb6;" d="M605 699Q619 699 623.50 687Q628 675 621 663Q614 651 601 651L503 651L408 265Q373 123 327 56.50Q281-10 199-11Q140-11 105.50 17Q71 45 68.50 87Q66 129 86 177Q95 185 107 185Q119 185 128.50 177Q138 169 134 160Q111 109 130.50 75Q150 41 204 42Q233 43 256 58.50Q279 74 295 103.50Q311 133 321 162Q331 191 342 233L448 651L364 651L295 384Q271 292 195 306Q154 314 130.50 375Q107 436 122 520Q140 623 187 661Q234 699 335 699L605 699Z"  horiz-adv-x="647" vert-adv-y="1000"  />

      
      <glyph glyph-name="unib7" unicode="&#xb7;" d="M124 316.50Q124 316.50 118.50 310.75Q113 305 97 305Q81 305 70 317Q59 329 59 345Q59 361 69.50 371.50Q80 382 97 383Q113 383 124.50 371.50Q136 360 136 344Q135 328 124 316.50Z"  horiz-adv-x="194" vert-adv-y="1000"  />

      
      <glyph glyph-name="unib8" unicode="&#xb8;" d="M108 24L147 21L104-54Q156-58 171-91.50Q186-125 162-158Q140-192 99.50-200.50Q59-209 0-178Q-5-173-5-164Q-5-155 2-149Q9-143 17-148Q62-170 86-163.50Q110-157 121-134Q130-113 119-97Q108-81 78-85Q68-87 61.50-81Q55-75 61-63L108 24Z"  horiz-adv-x="227" vert-adv-y="1000"  />

      
      <glyph glyph-name="unib9" unicode="&#xb9;" d="M149 637Q155 648 167 650Q179 652 188 645.50Q197 639 194 630Q183 598 171 550Q159 502 147 449Q135 396 131 382Q129 375 116.50 373Q104 371 93.50 375.50Q83 380 86 389Q92 410 108.50 477Q125 544 132 571Q106 548 66 530Q58 526 51.50 533.50Q45 541 45.50 550Q46 559 52 563Q109 586 149 637Z"  horiz-adv-x="240" vert-adv-y="1000"  />

      
      <glyph glyph-name="unibb" unicode="&#xbb;" d="M105 144Q95 137 82 144Q69 151 66 162.50Q63 174 75 184Q213 271 225 278Q179 324 114 394Q108 401 115.50 412Q123 423 134.50 426.50Q146 430 156 423Q169 409 270 308Q285 294 284 274.50Q283 255 264 244Q154 179 105 144M297 144Q287 137 274 144Q261 151 258 162.50Q255 174 267 184Q405 271 417 278Q371 324 306 394Q300 401 307.50 412Q315 423 326.50 426.50Q338 430 348 423Q361 409 462 308Q477 294 476 274.50Q475 255 456 244Q346 179 297 144Z"  horiz-adv-x="541" vert-adv-y="1000"  />

      
      <glyph glyph-name="unibc" unicode="&#xbc;" d="M126-5Q117-14 104-8.50Q91-3 87.50 8.50Q84 20 93 30Q126 74 270 320.50Q414 567 467 630Q494 661 516 649Q533 640 523 622Q522 619 519 616Q466 558 386 424Q306 290 233.50 162.50Q161 35 126-5M183 435.50Q183 435.50 166 367.75Q149 300 147 292Q145 284 133.50 283Q122 282 112 288Q102 294 104 302Q111 328 135 427Q159 526 172 571Q133 528 87 503Q69 494 62 509.50Q55 525 68 534Q139 574 187 638Q203 650 214.50 649.50Q226 649 232 641.50Q238 634 235 627Q217 571 183 435.50M479 5Q478-1 467.50-3.50Q457-6 447.50-2.50Q438 1 439 8L451 82L321 82Q307 82 303 96.50Q299 111 306 118L497 345Q503 352 513 352.50Q523 353 530 348Q537 343 536 337L497 114L538 113Q550 113 546 97Q542 83 531 82L491 82L479 5M352 114L456 114L483 271L352 114Z"  horiz-adv-x="607" vert-adv-y="1000"  />

      
      <glyph glyph-name="unibd" unicode="&#xbd;" d="M116-5Q107-14 94-8.50Q81-3 77.50 8.50Q74 20 83 30Q116 74 260 320.50Q404 567 457 630Q484 661 506 649Q523 640 513 622Q512 619 509 616Q456 558 376 424Q296 290 223.50 162.50Q151 35 116-5M173 435.50Q173 435.50 156 367.75Q139 300 137 292Q135 284 123.50 283Q112 282 102 288Q92 294 94 302Q101 328 125 427Q149 526 162 571Q123 528 77 503Q59 494 52 509.50Q45 525 58 534Q129 574 177 638Q193 650 204.50 649.50Q216 649 222 641.50Q228 634 225 627Q207 571 173 435.50M385 1Q368 4 369 20.50Q370 37 384 47Q431 82 479 137Q527 192 542 242Q553 278 541 299Q529 320 505 323Q480 325 461 307Q442 289 444 255Q445 243 425 244Q403 247 402 262Q405 311 436.50 338Q468 365 508 363Q552 361 577.50 327Q603 293 588 236Q574 183 525.50 125.50Q477 68 430 36L561 35Q568 34 570 25.50Q572 17 568 9.50Q564 2 556 2L385 1Z"  horiz-adv-x="643" vert-adv-y="1000"  />

      
      <glyph glyph-name="unibe" unicode="&#xbe;" d="M186-5Q177-14 164-8.50Q151-3 147.50 8.50Q144 20 153 30Q186 74 330 320.50Q474 567 527 630Q554 661 576 649Q593 640 583 622Q582 619 579 616Q526 558 446 424Q366 290 293.50 162.50Q221 35 186-5M156 286Q112 285 83 315Q54 345 62 398Q63 406 73.50 409.50Q84 413 93.50 409Q103 405 102 396Q96 364 113.50 345.50Q131 327 158 328Q180 328 198 341.50Q216 355 222 380Q230 414 213.50 437Q197 460 157 461Q151 461 148.50 469Q146 477 148.50 485Q151 493 158 493Q235 499 240 562Q242 586 229.50 599Q217 612 197 613Q178 613 160.50 600Q143 587 134 562Q133 551 116 550.50Q99 550 99 562Q106 604 135 626.50Q164 649 200 648Q238 647 263.50 622.50Q289 598 283 556Q279 524 258.50 504Q238 484 210 478Q243 469 257.50 441Q272 413 265 379Q256 335 225 310.50Q194 286 156 286M539 5Q538-1 527.50-3.50Q517-6 507.50-2.50Q498 1 499 8L511 82L381 82Q367 82 363 96.50Q359 111 366 118L557 345Q563 352 573 352.50Q583 353 590 348Q597 343 596 337L557 114L598 113Q610 113 606 97Q602 83 591 82L551 82L539 5M412 114L516 114L543 271L412 114Z"  horiz-adv-x="667" vert-adv-y="1000"  />

      
      <glyph glyph-name="unibf" unicode="&#xbf;" d="M272.50 400Q272.50 400 278.25 405.50Q284 411 299 411Q314 411 324 399.50Q334 388 333 373Q332 358 320.50 347Q309 336 293 336Q277 336 267.50 347Q258 358 259 374Q261 389 272.50 400M312 249Q310 219 299 191Q288 163 276.50 147Q265 131 245 107Q230 89 186 46.50Q142 4 116-31.50Q90-67 79-109Q53-209 129-230Q179-244 222.50-208.50Q266-173 277-105Q279-89 293.50-83.50Q308-78 320.50-86Q333-94 331-112Q315-210 254-255Q193-300 118-286Q59-275 30-227Q1-179 20-104Q34-49 63.50-9Q93 31 141.50 74Q190 117 208 137Q259 193 264 251Q265 261 277 265Q289 269 300.50 264Q312 259 312 249Z"  horiz-adv-x="412" vert-adv-y="1000"  />

      
      <glyph glyph-name="unic0" unicode="&#xc0;" d="M604 863Q640 815 662 782Q671 767 649.50 761.50Q628 756 618 769L558 844Q547 857 569 867Q593 878 604 863M149-10Q89-10 64.50 31Q40 72 56 132Q79 214 159 256.50Q239 299 332 286Q447 572 516 641Q557 682 594.50 687.50Q632 693 650.50 664.50Q669 636 658 585Q610 356 588 265Q708 277 768 351Q778 363 786 353Q795 342 785 326Q752 278 695.50 251Q639 224 577 219Q572 196 561.50 153.50Q551 111 543.50 77Q536 43 533 13Q532 4 516.50 0.50Q501-3 486.50 1.50Q472 6 474 15Q481 62 520 217Q507 217 484.50 220Q462 223 426.50 228Q391 233 368 236Q320 115 271.50 52.50Q223-10 149-10M531 262Q581 458 610 599Q617 635 599.50 641.50Q582 648 557 622Q540 605 522.50 578Q505 551 492 527.50Q479 504 461 463.50Q443 423 435 403Q427 383 409 337Q391 291 387 281Q514 263 531 262M153 41Q187 41 216 70Q245 99 259 126Q273 153 305 224Q308 229 309.50 233Q311 237 313 241Q152 246 114 127Q102 92 112 66.50Q122 41 153 41Z"  horiz-adv-x="742" vert-adv-y="1000"  />

      
      <glyph glyph-name="unic1" unicode="&#xc1;" d="M656 863Q667 878 691 867Q713 857 702 844L642 769Q631 755 609 762Q589 768 598 782Q620 815 656 863M149-10Q89-10 64.50 31Q40 72 56 132Q79 214 159 256.50Q239 299 332 286Q447 572 516 641Q557 682 594.50 687.50Q632 693 650.50 664.50Q669 636 658 585Q610 356 588 265Q708 277 768 351Q778 363 786 353Q795 342 785 326Q752 278 695.50 251Q639 224 577 219Q572 196 561.50 153.50Q551 111 543.50 77Q536 43 533 13Q532 4 516.50 0.50Q501-3 486.50 1.50Q472 6 474 15Q481 62 520 217Q507 217 484.50 220Q462 223 426.50 228Q391 233 368 236Q320 115 271.50 52.50Q223-10 149-10M531 262Q581 458 610 599Q617 635 599.50 641.50Q582 648 557 622Q540 605 522.50 578Q505 551 492 527.50Q479 504 461 463.50Q443 423 435 403Q427 383 409 337Q391 291 387 281Q514 263 531 262M153 41Q187 41 216 70Q245 99 259 126Q273 153 305 224Q308 229 309.50 233Q311 237 313 241Q152 246 114 127Q102 92 112 66.50Q122 41 153 41Z"  horiz-adv-x="742" vert-adv-y="1000"  />

      
      <glyph glyph-name="unic2" unicode="&#xc2;" d="M633 862Q644 869 659 869Q674 869 682 862Q692 854 749 786Q759 774 738 767Q715 758 703 772L654 830L576 766Q559 752 538 763Q519 773 534 786Q589 835 633 862M149-10Q89-10 64.50 31Q40 72 56 132Q79 214 159 256.50Q239 299 332 286Q447 572 516 641Q557 682 594.50 687.50Q632 693 650.50 664.50Q669 636 658 585Q610 356 588 265Q708 277 768 351Q778 363 786 353Q795 342 785 326Q752 278 695.50 251Q639 224 577 219Q572 196 561.50 153.50Q551 111 543.50 77Q536 43 533 13Q532 4 516.50 0.50Q501-3 486.50 1.50Q472 6 474 15Q481 62 520 217Q507 217 484.50 220Q462 223 426.50 228Q391 233 368 236Q320 115 271.50 52.50Q223-10 149-10M531 262Q581 458 610 599Q617 635 599.50 641.50Q582 648 557 622Q540 605 522.50 578Q505 551 492 527.50Q479 504 461 463.50Q443 423 435 403Q427 383 409 337Q391 291 387 281Q514 263 531 262M153 41Q187 41 216 70Q245 99 259 126Q273 153 305 224Q308 229 309.50 233Q311 237 313 241Q152 246 114 127Q102 92 112 66.50Q122 41 153 41Z"  horiz-adv-x="742" vert-adv-y="1000"  />

      
      <glyph glyph-name="unic3" unicode="&#xc3;" d="M684 771Q664 772 636 789Q608 806 593 806Q576 806 557 781Q553 777 545 779Q537 781 531.50 788Q526 795 529 801Q550 847 596 847Q618 847 645.50 830Q673 813 687 812Q708 811 724 835Q731 844 744 834.50Q757 825 752 815Q731 770 684 771M149-10Q89-10 64.50 31Q40 72 56 132Q79 214 159 256.50Q239 299 332 286Q447 572 516 641Q557 682 594.50 687.50Q632 693 650.50 664.50Q669 636 658 585Q610 356 588 265Q708 277 768 351Q778 363 786 353Q795 342 785 326Q752 278 695.50 251Q639 224 577 219Q572 196 561.50 153.50Q551 111 543.50 77Q536 43 533 13Q532 4 516.50 0.50Q501-3 486.50 1.50Q472 6 474 15Q481 62 520 217Q507 217 484.50 220Q462 223 426.50 228Q391 233 368 236Q320 115 271.50 52.50Q223-10 149-10M531 262Q581 458 610 599Q617 635 599.50 641.50Q582 648 557 622Q540 605 522.50 578Q505 551 492 527.50Q479 504 461 463.50Q443 423 435 403Q427 383 409 337Q391 291 387 281Q514 263 531 262M153 41Q187 41 216 70Q245 99 259 126Q273 153 305 224Q308 229 309.50 233Q311 237 313 241Q152 246 114 127Q102 92 112 66.50Q122 41 153 41Z"  horiz-adv-x="742" vert-adv-y="1000"  />

      
      <glyph glyph-name="unic4" unicode="&#xc4;" d="M582 763Q567 763 556.50 774Q546 785 546 800Q546 814 556 824.50Q566 835 582 836Q596 836 606.50 825Q617 814 617 799Q616 785 605.50 774Q595 763 582 763M706 763Q692 763 682 774Q672 785 672 800Q672 814 682 824.50Q692 835 706 836Q722 836 732.50 825Q743 814 743 799Q742 784 731.50 773.50Q721 763 706 763M149-10Q89-10 64.50 31Q40 72 56 132Q79 214 159 256.50Q239 299 332 286Q447 572 516 641Q557 682 594.50 687.50Q632 693 650.50 664.50Q669 636 658 585Q610 356 588 265Q708 277 768 351Q778 363 786 353Q795 342 785 326Q752 278 695.50 251Q639 224 577 219Q572 196 561.50 153.50Q551 111 543.50 77Q536 43 533 13Q532 4 516.50 0.50Q501-3 486.50 1.50Q472 6 474 15Q481 62 520 217Q507 217 484.50 220Q462 223 426.50 228Q391 233 368 236Q320 115 271.50 52.50Q223-10 149-10M531 262Q581 458 610 599Q617 635 599.50 641.50Q582 648 557 622Q540 605 522.50 578Q505 551 492 527.50Q479 504 461 463.50Q443 423 435 403Q427 383 409 337Q391 291 387 281Q514 263 531 262M153 41Q187 41 216 70Q245 99 259 126Q273 153 305 224Q308 229 309.50 233Q311 237 313 241Q152 246 114 127Q102 92 112 66.50Q122 41 153 41Z"  horiz-adv-x="742" vert-adv-y="1000"  />

      
      <glyph glyph-name="unic5" unicode="&#xc5;" d="M650 884Q683 883 702 863.50Q721 844 718 813Q715 779 690.50 759Q666 739 633 740Q602 741 583.50 761Q565 781 568 812Q571 844 594.50 864.50Q618 885 650 884M647 850Q631 850 619.50 839.50Q608 829 606 812Q604 796 613 785.50Q622 775 637 775Q675 775 680 812Q682 829 673 839.50Q664 850 647 850M149-10Q89-10 64.50 31Q40 72 56 132Q79 214 159 256.50Q239 299 332 286Q447 572 516 641Q557 682 594.50 687.50Q632 693 650.50 664.50Q669 636 658 585Q610 356 588 265Q708 277 768 351Q778 363 786 353Q795 342 785 326Q752 278 695.50 251Q639 224 577 219Q572 196 561.50 153.50Q551 111 543.50 77Q536 43 533 13Q532 4 516.50 0.50Q501-3 486.50 1.50Q472 6 474 15Q481 62 520 217Q507 217 484.50 220Q462 223 426.50 228Q391 233 368 236Q320 115 271.50 52.50Q223-10 149-10M531 262Q581 458 610 599Q617 635 599.50 641.50Q582 648 557 622Q540 605 522.50 578Q505 551 492 527.50Q479 504 461 463.50Q443 423 435 403Q427 383 409 337Q391 291 387 281Q514 263 531 262M153 41Q187 41 216 70Q245 99 259 126Q273 153 305 224Q308 229 309.50 233Q311 237 313 241Q152 246 114 127Q102 92 112 66.50Q122 41 153 41Z"  horiz-adv-x="742" vert-adv-y="1000"  />

      
      <glyph glyph-name="unic6" unicode="&#xc6;" d="M729-11Q597-11 545 79Q534 19 531-4Q531-13 516-16.50Q501-20 486.50-15.50Q472-11 474-2Q490 99 519 217Q506 217 484 220Q462 223 426.50 228Q391 233 368 236Q320 115 271.50 52.50Q223-10 149-10Q89-10 64.50 31Q40 72 56 132Q79 214 159 256.50Q239 299 332 286Q447 572 516 641Q557 682 594.50 687.50Q632 693 650.50 664.50Q669 636 658 585Q624 421 605 339Q673 390 767 385Q700 426 691.50 504Q683 582 741 640Q735 692 752 743Q754 749 763 750.50Q772 752 778.50 748Q785 744 783 736Q773 705 778 661Q830 690 893 687Q948 685 978.50 655Q1009 625 1009 585Q1009 545 978 516Q947 487 892 487Q842 487 807.50 512.50Q773 538 759 574Q730 512 762.50 456.50Q795 401 867 377Q878 372 870.50 351.50Q863 331 852 334Q765 360 680 325Q595 290 578 212Q563 141 610.50 89.50Q658 38 735 38Q896 38 973 236Q976 241 983.50 240.50Q991 240 997.50 234Q1004 228 1001 222Q953 95 886.50 42Q820-11 729-11M531 262Q581 458 610 599Q617 635 599.50 641.50Q582 648 557 622Q540 605 522.50 578Q505 551 492 527.50Q479 504 461 463.50Q443 423 435 403Q427 383 409 337Q391 291 387 281Q514 263 531 262M891 536Q921 536 937.50 550Q954 564 954 584Q954 606 934 622.50Q914 639 878 639Q826 639 790 611Q821 536 891 536M153 41Q187 41 216 70Q245 99 259 126Q273 153 305 224Q308 229 309.50 233Q311 237 313 241Q152 246 114 127Q102 92 112 66.50Q122 41 153 41Z"  horiz-adv-x="975" vert-adv-y="1000"  />

      
      <glyph glyph-name="unic7" unicode="&#xc7;" d="M584 238Q587 242 594 241Q601 240 607.50 233.50Q614 227 611 221Q567 109 506 55Q445 1 359-7L333-53Q385-57 400-90.50Q415-124 391-157Q369-191 328.50-199.50Q288-208 229-177Q224-172 224-163Q224-154 231-148Q238-142 246-147Q291-169 315-162.50Q339-156 350-133Q359-112 348-96Q337-80 307-84Q297-86 290.50-80Q284-74 290-62L319-9Q255-6 213 33.50Q171 73 155 133Q139 193 143 269Q151 406 218 523Q163 607 161 678Q159 691 176 693Q197 696 202 680L203 676Q204 632 244 564Q348 707 486 699Q551 695 577 641Q603 587 570 516Q532 437 432.50 423.50Q333 410 257 471Q211 375 208 278Q199 45 338 43Q410 42 475 86.50Q540 131 584 238M475 644Q364 650 282 517Q341 468 411.50 475Q482 482 510 526Q537 569 526 605.50Q515 642 475 644Z"  horiz-adv-x="585" vert-adv-y="1000"  />

      
      <glyph glyph-name="unic8" unicode="&#xc8;" d="M344 863Q380 815 402 782Q411 767 389.50 761.50Q368 756 358 769L298 844Q287 857 309 867Q333 878 344 863M228 761Q226 696 241 657Q285 694 347.50 699.50Q410 705 454.50 675.50Q499 646 497 593Q495 554 463.50 528.50Q432 503 377 508Q289 516 242 573Q219 517 261 460.50Q303 404 381 396Q394 395 391.50 372.50Q389 350 376 351Q329 354 280 338.50Q231 323 189.50 279.50Q148 236 143 172Q138 117 169 80.50Q200 44 254 43Q420 39 505 238Q508 242 515 241Q522 240 528.50 234Q535 228 532 221Q440-18 240-9Q165-5 119 46.50Q73 98 78 167Q83 253 142.50 315Q202 377 283 383Q202 409 180 488Q158 567 209 634Q193 678 196 761Q196 771 212 772.50Q228 774 228 761M270 615Q311 562 376 558Q406 555 422 566.50Q438 578 438 596Q438 627 406.50 641.50Q375 656 334.50 648Q294 640 270 615Z"  horiz-adv-x="506" vert-adv-y="1000"  />

      
      <glyph glyph-name="unic9" unicode="&#xc9;" d="M396 863Q407 878 431 867Q453 857 442 844L382 769Q371 755 349 762Q329 768 338 782Q360 815 396 863M228 761Q226 696 241 657Q285 694 347.50 699.50Q410 705 454.50 675.50Q499 646 497 593Q495 554 463.50 528.50Q432 503 377 508Q289 516 242 573Q219 517 261 460.50Q303 404 381 396Q394 395 391.50 372.50Q389 350 376 351Q329 354 280 338.50Q231 323 189.50 279.50Q148 236 143 172Q138 117 169 80.50Q200 44 254 43Q420 39 505 238Q508 242 515 241Q522 240 528.50 234Q535 228 532 221Q440-18 240-9Q165-5 119 46.50Q73 98 78 167Q83 253 142.50 315Q202 377 283 383Q202 409 180 488Q158 567 209 634Q193 678 196 761Q196 771 212 772.50Q228 774 228 761M270 615Q311 562 376 558Q406 555 422 566.50Q438 578 438 596Q438 627 406.50 641.50Q375 656 334.50 648Q294 640 270 615Z"  horiz-adv-x="506" vert-adv-y="1000"  />

      
      <glyph glyph-name="unica" unicode="&#xca;" d="M373 862Q384 869 399 869Q414 869 422 862Q432 854 489 786Q499 774 478 767Q455 758 443 772L394 830L316 766Q299 752 278 763Q259 773 274 786Q329 835 373 862M228 761Q226 696 241 657Q285 694 347.50 699.50Q410 705 454.50 675.50Q499 646 497 593Q495 554 463.50 528.50Q432 503 377 508Q289 516 242 573Q219 517 261 460.50Q303 404 381 396Q394 395 391.50 372.50Q389 350 376 351Q329 354 280 338.50Q231 323 189.50 279.50Q148 236 143 172Q138 117 169 80.50Q200 44 254 43Q420 39 505 238Q508 242 515 241Q522 240 528.50 234Q535 228 532 221Q440-18 240-9Q165-5 119 46.50Q73 98 78 167Q83 253 142.50 315Q202 377 283 383Q202 409 180 488Q158 567 209 634Q193 678 196 761Q196 771 212 772.50Q228 774 228 761M270 615Q311 562 376 558Q406 555 422 566.50Q438 578 438 596Q438 627 406.50 641.50Q375 656 334.50 648Q294 640 270 615Z"  horiz-adv-x="506" vert-adv-y="1000"  />

      
      <glyph glyph-name="unicb" unicode="&#xcb;" d="M322 763Q307 763 296.50 774Q286 785 286 800Q286 814 296 824.50Q306 835 322 836Q336 836 346.50 825Q357 814 357 799Q356 785 345.50 774Q335 763 322 763M446 763Q432 763 422 774Q412 785 412 800Q412 814 422 824.50Q432 835 446 836Q462 836 472.50 825Q483 814 483 799Q482 784 471.50 773.50Q461 763 446 763M228 761Q226 696 241 657Q285 694 347.50 699.50Q410 705 454.50 675.50Q499 646 497 593Q495 554 463.50 528.50Q432 503 377 508Q289 516 242 573Q219 517 261 460.50Q303 404 381 396Q394 395 391.50 372.50Q389 350 376 351Q329 354 280 338.50Q231 323 189.50 279.50Q148 236 143 172Q138 117 169 80.50Q200 44 254 43Q420 39 505 238Q508 242 515 241Q522 240 528.50 234Q535 228 532 221Q440-18 240-9Q165-5 119 46.50Q73 98 78 167Q83 253 142.50 315Q202 377 283 383Q202 409 180 488Q158 567 209 634Q193 678 196 761Q196 771 212 772.50Q228 774 228 761M270 615Q311 562 376 558Q406 555 422 566.50Q438 578 438 596Q438 627 406.50 641.50Q375 656 334.50 648Q294 640 270 615Z"  horiz-adv-x="506" vert-adv-y="1000"  />

      
      <glyph glyph-name="unicc" unicode="&#xcc;" d="M477 864Q513 816 535 783Q544 768 522.50 762.50Q501 757 491 770L431 845Q420 858 442 868Q466 879 477 864M465 679Q471 695 487.50 697.50Q504 700 516.50 691.50Q529 683 526 671Q488 544 416 265Q379 119 336.50 54.50Q294-10 212-11Q151-11 114.50 26.50Q78 64 82 121.50Q86 179 134 230Q142 242 159 231Q176 220 170 208Q142 170 139.50 131Q137 92 159.50 67Q182 42 224 42Q245 42 263 54.50Q281 67 292 81.50Q303 96 315 126.50Q327 157 332.50 176Q338 195 349 233Q373 321 397.50 414.50Q422 508 434 552Q446 596 452 614Q417 576 369 544.50Q321 513 286 497Q251 481 223 457.50Q195 434 189 407Q175 339 235 333Q245 332 248 320.50Q251 309 245 298.50Q239 288 227 289Q193 292 169.50 305.50Q146 319 137 337.50Q128 356 124.50 377Q121 398 127 416Q137 460 175.50 491Q214 522 259.50 539Q305 556 364.50 592.50Q424 629 465 679Z"  horiz-adv-x="504" vert-adv-y="1000"  />

      
      <glyph glyph-name="unicd" unicode="&#xcd;" d="M529 864Q540 879 564 868Q586 858 575 845L515 770Q504 756 482 763Q462 769 471 783Q493 816 529 864M465 679Q471 695 487.50 697.50Q504 700 516.50 691.50Q529 683 526 671Q488 544 416 265Q379 119 336.50 54.50Q294-10 212-11Q151-11 114.50 26.50Q78 64 82 121.50Q86 179 134 230Q142 242 159 231Q176 220 170 208Q142 170 139.50 131Q137 92 159.50 67Q182 42 224 42Q245 42 263 54.50Q281 67 292 81.50Q303 96 315 126.50Q327 157 332.50 176Q338 195 349 233Q373 321 397.50 414.50Q422 508 434 552Q446 596 452 614Q417 576 369 544.50Q321 513 286 497Q251 481 223 457.50Q195 434 189 407Q175 339 235 333Q245 332 248 320.50Q251 309 245 298.50Q239 288 227 289Q193 292 169.50 305.50Q146 319 137 337.50Q128 356 124.50 377Q121 398 127 416Q137 460 175.50 491Q214 522 259.50 539Q305 556 364.50 592.50Q424 629 465 679Z"  horiz-adv-x="504" vert-adv-y="1000"  />

      
      <glyph glyph-name="unice" unicode="&#xce;" d="M506 863Q517 870 532 870Q547 870 555 863Q564 855 622 787Q632 775 611 768Q588 759 576 773L527 831L449 767Q432 753 411 764Q392 774 407 787Q462 836 506 863M465 679Q471 695 487.50 697.50Q504 700 516.50 691.50Q529 683 526 671Q488 544 416 265Q379 119 336.50 54.50Q294-10 212-11Q151-11 114.50 26.50Q78 64 82 121.50Q86 179 134 230Q142 242 159 231Q176 220 170 208Q142 170 139.50 131Q137 92 159.50 67Q182 42 224 42Q245 42 263 54.50Q281 67 292 81.50Q303 96 315 126.50Q327 157 332.50 176Q338 195 349 233Q373 321 397.50 414.50Q422 508 434 552Q446 596 452 614Q417 576 369 544.50Q321 513 286 497Q251 481 223 457.50Q195 434 189 407Q175 339 235 333Q245 332 248 320.50Q251 309 245 298.50Q239 288 227 289Q193 292 169.50 305.50Q146 319 137 337.50Q128 356 124.50 377Q121 398 127 416Q137 460 175.50 491Q214 522 259.50 539Q305 556 364.50 592.50Q424 629 465 679Z"  horiz-adv-x="504" vert-adv-y="1000"  />

      
      <glyph glyph-name="unicf" unicode="&#xcf;" d="M455 764Q440 764 429.50 775Q419 786 419 801Q419 815 429 825.50Q439 836 455 837Q469 837 479.50 826Q490 815 490 800Q489 786 478.50 775Q468 764 455 764M579 764Q565 764 555 775Q545 786 545 801Q545 815 555 825.50Q565 836 579 837Q595 837 605.50 826Q616 815 616 800Q615 785 604.50 774.50Q594 764 579 764M465 679Q471 695 487.50 697.50Q504 700 516.50 691.50Q529 683 526 671Q488 544 416 265Q379 119 336.50 54.50Q294-10 212-11Q151-11 114.50 26.50Q78 64 82 121.50Q86 179 134 230Q142 242 159 231Q176 220 170 208Q142 170 139.50 131Q137 92 159.50 67Q182 42 224 42Q245 42 263 54.50Q281 67 292 81.50Q303 96 315 126.50Q327 157 332.50 176Q338 195 349 233Q373 321 397.50 414.50Q422 508 434 552Q446 596 452 614Q417 576 369 544.50Q321 513 286 497Q251 481 223 457.50Q195 434 189 407Q175 339 235 333Q245 332 248 320.50Q251 309 245 298.50Q239 288 227 289Q193 292 169.50 305.50Q146 319 137 337.50Q128 356 124.50 377Q121 398 127 416Q137 460 175.50 491Q214 522 259.50 539Q305 556 364.50 592.50Q424 629 465 679Z"  horiz-adv-x="504" vert-adv-y="1000"  />

      
      <glyph glyph-name="unid0" unicode="&#xd0;" d="M181-10Q121-11 92 18.50Q63 48 66 89Q71 141 108 165Q145 189 194 182Q243 175 286 143Q301 176 318 240L251 240Q241 240 236.50 249.50Q232 259 236 268.50Q240 278 251 278L328 278Q356 389 392.50 475Q429 561 462 584Q479 596 497 578Q508 566 501 558Q442 503 384 276Q404 276 441 276Q478 276 495 277Q508 278 507 260Q503 241 488 239Q472 239 454 239Q436 239 412.50 239Q389 239 374 239Q349 141 329 109Q355 84 404 64.50Q453 45 496 44Q590 41 645 137Q700 233 702 366Q704 489 640 567.50Q576 646 454 646Q397 646 348 619Q299 592 273.50 552Q248 512 248 463.50Q248 415 281 376Q287 369 280.50 357.50Q274 346 263 342.50Q252 339 242 346Q189 406 189.50 472.50Q190 539 236 598Q274 646 334 673.50Q394 701 465 699Q608 695 686.50 600Q765 505 763 366Q762 294 744.50 227Q727 160 695 104.50Q663 49 609.50 17.50Q556-14 490-9Q375-1 303 64Q255-10 181-10M184 38Q192 38 199 39.50Q206 41 211 42.50Q216 44 222.50 49Q229 54 232 56Q235 58 241.50 65.50Q248 73 250 75.50Q252 78 259 87.50Q266 97 268 99Q225 133 187 138Q148 142 129 117Q110 92 125 65Q140 38 184 38Z"  horiz-adv-x="835" vert-adv-y="1000"  />

      
      <glyph glyph-name="unid1" unicode="&#xd1;" d="M737 771Q717 772 689 789Q661 806 646 806Q629 806 610 781Q606 777 598 779Q590 781 584.50 788Q579 795 582 801Q603 847 649 847Q671 847 698.50 830Q726 813 740 812Q761 811 777 835Q784 844 797 834.50Q810 825 805 815Q784 770 737 771M736 698Q772 698 796 685Q820 672 829 648Q838 624 841.50 599Q845 574 839 541Q833 508 828 486Q823 464 816 438Q813 428 812 424Q806 400 794 359Q782 318 775 292.50Q768 267 758.50 229.50Q749 192 745 167.50Q741 143 737 112.50Q733 82 735.50 61Q738 40 743.50 19.50Q749-1 761-15Q773-29 791-38Q801-44 800.50-57Q800-70 788-80.50Q776-91 762-86Q740-76 723.50-62Q707-48 697.50-27.50Q688-7 681 11.50Q674 30 674.50 61Q675 92 675 113Q675 134 683 173.50Q691 213 695.50 235Q700 257 713 303Q726 349 732.50 370.50Q739 392 754 442Q765 476 770.50 507.50Q776 539 776.50 572.50Q777 606 762.50 625.50Q748 645 718 645Q658 644 573.50 543.50Q489 443 430 331Q424 311 403.50 236.50Q383 162 364.50 102Q346 42 331 8Q323-9 294-9Q270-10 270 4Q270 7 271 9Q292 69 319.50 158Q347 247 361.50 299Q376 351 409.50 472Q443 593 447 608Q412 572 365 541.50Q318 511 284 495.50Q250 480 222.50 457Q195 434 190 407Q176 339 236 333Q246 332 249 320.50Q252 309 246 298.50Q240 288 228 289Q194 292 170.50 305.50Q147 319 138 337.50Q129 356 125.50 377Q122 398 128 416Q136 452 161.50 478Q187 504 224 522Q261 540 301 557.50Q341 575 386.50 606Q432 637 465 678Q469 695 484.50 698Q500 701 512 692Q524 683 521 671L461 449Q602 699 736 698Z"  horiz-adv-x="888" vert-adv-y="1000"  />

      
      <glyph glyph-name="unid2" unicode="&#xd2;" d="M409 864Q445 816 467 783Q476 768 454.50 762.50Q433 757 423 770L363 845Q352 858 374 868Q398 879 409 864M433 697Q490 689 528 657Q566 625 581 582.50Q596 540 598.50 485Q601 430 595 384.50Q589 339 577 294Q647 305 717 345Q725 351 727 336Q730 313 716 305Q639 260 563 249Q524 136 453 62Q382-12 290-10Q183-9 135 76Q97 141 106 246.50Q115 352 167 435Q174 441 186 438.50Q198 436 206 424.50Q214 413 208 402Q184 354 172.50 294Q161 234 165 178Q169 122 200.50 82.50Q232 43 289 41Q358 38 412 96Q466 154 499 246Q367 252 287 349.50Q207 447 231 563Q247 637 303.50 671.50Q360 706 433 697M429 643Q318 657 293 555Q270 458 335.50 378Q401 298 514 291Q527 335 532.50 388.50Q538 442 534 499Q530 556 503.50 596.50Q477 637 429 643Z"  horiz-adv-x="692" vert-adv-y="1000"  />

      
      <glyph glyph-name="unid3" unicode="&#xd3;" d="M461 864Q472 879 496 868Q518 858 507 845L447 770Q436 756 414 763Q394 769 403 783Q425 816 461 864M433 697Q490 689 528 657Q566 625 581 582.50Q596 540 598.50 485Q601 430 595 384.50Q589 339 577 294Q647 305 717 345Q725 351 727 336Q730 313 716 305Q639 260 563 249Q524 136 453 62Q382-12 290-10Q183-9 135 76Q97 141 106 246.50Q115 352 167 435Q174 441 186 438.50Q198 436 206 424.50Q214 413 208 402Q184 354 172.50 294Q161 234 165 178Q169 122 200.50 82.50Q232 43 289 41Q358 38 412 96Q466 154 499 246Q367 252 287 349.50Q207 447 231 563Q247 637 303.50 671.50Q360 706 433 697M429 643Q318 657 293 555Q270 458 335.50 378Q401 298 514 291Q527 335 532.50 388.50Q538 442 534 499Q530 556 503.50 596.50Q477 637 429 643Z"  horiz-adv-x="692" vert-adv-y="1000"  />

      
      <glyph glyph-name="unid4" unicode="&#xd4;" d="M438 863Q449 870 464 870Q479 870 487 863Q496 855 554 787Q564 775 543 768Q520 759 508 773L459 831L381 767Q364 753 343 764Q324 774 339 787Q394 836 438 863M433 697Q490 689 528 657Q566 625 581 582.50Q596 540 598.50 485Q601 430 595 384.50Q589 339 577 294Q647 305 717 345Q725 351 727 336Q730 313 716 305Q639 260 563 249Q524 136 453 62Q382-12 290-10Q183-9 135 76Q97 141 106 246.50Q115 352 167 435Q174 441 186 438.50Q198 436 206 424.50Q214 413 208 402Q184 354 172.50 294Q161 234 165 178Q169 122 200.50 82.50Q232 43 289 41Q358 38 412 96Q466 154 499 246Q367 252 287 349.50Q207 447 231 563Q247 637 303.50 671.50Q360 706 433 697M429 643Q318 657 293 555Q270 458 335.50 378Q401 298 514 291Q527 335 532.50 388.50Q538 442 534 499Q530 556 503.50 596.50Q477 637 429 643Z"  horiz-adv-x="692" vert-adv-y="1000"  />

      
      <glyph glyph-name="unid5" unicode="&#xd5;" d="M489 772Q469 773 441 790Q413 807 398 807Q381 807 362 782Q358 778 350 780Q342 782 336.50 789Q331 796 334 802Q355 848 401 848Q423 848 450.50 831Q478 814 492 813Q513 812 529 836Q536 845 549 835.50Q562 826 557 816Q536 771 489 772M433 697Q490 689 528 657Q566 625 581 582.50Q596 540 598.50 485Q601 430 595 384.50Q589 339 577 294Q647 305 717 345Q725 351 727 336Q730 313 716 305Q639 260 563 249Q524 136 453 62Q382-12 290-10Q183-9 135 76Q97 141 106 246.50Q115 352 167 435Q174 441 186 438.50Q198 436 206 424.50Q214 413 208 402Q184 354 172.50 294Q161 234 165 178Q169 122 200.50 82.50Q232 43 289 41Q358 38 412 96Q466 154 499 246Q367 252 287 349.50Q207 447 231 563Q247 637 303.50 671.50Q360 706 433 697M429 643Q318 657 293 555Q270 458 335.50 378Q401 298 514 291Q527 335 532.50 388.50Q538 442 534 499Q530 556 503.50 596.50Q477 637 429 643Z"  horiz-adv-x="692" vert-adv-y="1000"  />

      
      </font>
</defs>
</svg>
